<svg width="1346" height="401" viewBox="0 0 1346 401" fill="none" xmlns="http://www.w3.org/2000/svg">
<path d="M721.999 379.922C721.999 379.922 646.283 282.367 667.873 194.928C689.461 107.488 723.161 7.03057 842.806 18.4384C1000.79 33.5039 1080.99 2.27949 1140.88 10.359C1200.76 18.4384 1285.87 40.6462 1318.93 149.863C1352 259.08 1316.41 379.922 1316.41 379.922H721.999Z" fill="#E5FFDE"/>
<path d="M1043.11 184.717L1095.63 142.315C1096.73 141.426 1096.88 139.776 1095.9 138.765C1084.27 126.723 1063.86 126.335 1049.02 138.314C1034.18 150.294 1030.25 170.323 1039.58 184.232C1040.36 185.402 1042.01 185.605 1043.11 184.717Z" fill="#FF6633"/>
<path d="M1222.57 44.6244C1219.98 40.4328 1221.29 34.9226 1225.51 32.317L1270.14 4.71778C1274.36 2.11221 1279.87 3.39796 1282.46 7.5896L1290.56 20.6817C1293.15 24.8734 1291.84 30.3836 1287.62 32.9892L1242.99 60.5884C1238.77 63.1939 1233.25 61.9082 1230.66 57.7165L1222.57 44.6244Z" fill="#1CB9FC"/>
<path d="M33.4595 30.8172C37.7829 25.311 50.215 27.8571 61.2274 36.504C72.2397 45.151 77.662 56.6243 73.3386 62.1304C69.0151 67.6366 56.583 65.0905 45.5707 56.4436C34.5584 47.7966 29.136 36.3233 33.4595 30.8172Z" fill="#FCA21C"/>
<path d="M610.567 368.527L582.835 307.436C582.254 306.156 580.704 305.599 579.487 306.293C565.006 314.484 559.553 334.028 567.388 351.288C575.222 368.548 593.518 377.311 609.222 371.8C610.544 371.336 611.148 369.807 610.567 368.527Z" fill="#FF6633"/>
<path d="M15.9861 352.691C19.2261 352.395 22.0939 354.794 22.3917 358.05L25.5456 392.536C25.8434 395.791 23.4583 398.671 20.2183 398.967L10.0988 399.893C6.85884 400.189 3.99098 397.79 3.69322 394.534L0.539277 360.048C0.241521 356.793 2.62663 353.913 5.86656 353.617L15.9861 352.691Z" fill="#1CB9FC"/>
<path d="M1265.98 315.819C1271.51 306.248 1291.51 307.449 1310.65 318.5C1329.79 329.551 1340.83 346.269 1335.3 355.839C1329.77 365.41 1309.78 364.21 1290.64 353.158C1271.5 342.107 1260.46 325.39 1265.98 315.819Z" fill="#FCA21C"/>
<path fill-rule="evenodd" clip-rule="evenodd" d="M725.092 40.4952C725.632 35.8834 729.818 32.5584 734.443 33.0688C744.857 34.2181 754.584 40.5021 760.269 50.3503C765.955 60.1985 766.532 71.7638 762.322 81.3555C760.452 85.6159 755.48 87.5794 751.216 85.7411C746.952 83.9028 745.011 78.9589 746.881 74.6986C748.867 70.1724 748.765 64.2028 745.643 58.7949C742.52 53.3853 737.401 50.312 732.489 49.7699C727.864 49.2595 724.553 45.1071 725.092 40.4952Z" fill="#70C05B"/>
<path fill-rule="evenodd" clip-rule="evenodd" d="M278.857 334.559C283.657 336.809 285.745 342.544 283.522 347.368C278.516 358.23 268.197 366.494 255.478 369.094C242.759 371.694 230.026 368.14 221.16 360.116C217.222 356.553 216.892 350.458 220.423 346.505C223.953 342.551 230.009 342.235 233.947 345.799C238.131 349.586 244.632 351.631 251.617 350.204C258.603 348.776 263.78 344.343 266.142 339.219C268.365 334.395 274.058 332.309 278.857 334.559Z" fill="#70C05B"/>
<path d="M966.243 133.87H1014.4C1015.37 133.87 1016.16 133.08 1016.16 132.106V103.764C1016.16 102.79 1015.37 102 1014.4 102H966.243C965.27 102 964.479 102.79 964.479 103.764V132.106C964.479 133.08 965.27 133.87 966.243 133.87Z" fill="white"/>
<path d="M969.333 107.801H1012.43C1012.72 107.801 1012.97 107.56 1012.97 107.262C1012.97 106.964 1012.72 106.722 1012.43 106.722H969.333C969.035 106.722 968.793 106.964 968.793 107.262C968.793 107.56 969.035 107.801 969.333 107.801Z" fill="#61A3C5"/>
<path d="M969.333 113.935H1012.43C1012.72 113.935 1012.97 113.693 1012.97 113.395C1012.97 113.098 1012.72 112.856 1012.43 112.856H969.333C969.035 112.856 968.793 113.098 968.793 113.395C968.793 113.693 969.035 113.935 969.333 113.935Z" fill="#61A3C5"/>
<path d="M984.427 120.069H1012.43C1012.73 120.069 1012.97 119.827 1012.97 119.529C1012.97 119.231 1012.73 118.99 1012.43 118.99H984.427C984.129 118.99 983.888 119.231 983.888 119.529C983.888 119.827 984.129 120.069 984.427 120.069Z" fill="#61A3C5"/>
<path d="M969.013 120.069H980.188C980.486 120.069 980.728 119.827 980.728 119.529C980.728 119.231 980.486 118.99 980.188 118.99H969.013C968.715 118.99 968.474 119.231 968.474 119.529C968.474 119.827 968.715 120.069 969.013 120.069Z" fill="#61A3C5"/>
<path d="M994.827 126.203H1012.43C1012.72 126.203 1012.97 125.961 1012.97 125.663C1012.97 125.365 1012.72 125.123 1012.43 125.123H994.827C994.529 125.123 994.287 125.365 994.287 125.663C994.287 125.961 994.529 126.203 994.827 126.203Z" fill="#61A3C5"/>
<path d="M969.013 126.203H990.881C991.179 126.203 991.42 125.961 991.42 125.663C991.42 125.365 991.179 125.123 990.881 125.123H969.013C968.715 125.123 968.474 125.365 968.474 125.663C968.474 125.961 968.715 126.203 969.013 126.203Z" fill="#61A3C5"/>
<path d="M980.285 132.46C980.231 132.674 971.91 143.501 971.859 143.182C971.805 142.862 972.819 131.553 972.819 131.553L980.285 132.46Z" fill="white"/>
<path d="M835.147 193.127H883.299C884.272 193.127 885.062 192.337 885.062 191.363V168.153C885.062 167.179 884.272 166.389 883.299 166.389H835.147C834.173 166.389 833.383 167.179 833.383 168.153V191.363C833.383 192.337 834.171 193.127 835.147 193.127Z" fill="white"/>
<path d="M838.236 173.192H881.33C881.628 173.192 881.869 172.951 881.869 172.653C881.869 172.355 881.628 172.113 881.33 172.113H838.236C837.938 172.113 837.696 172.355 837.696 172.653C837.694 172.951 837.936 173.192 838.236 173.192Z" fill="#61A3C5"/>
<path d="M853.329 179.326H881.33C881.628 179.326 881.869 179.085 881.869 178.787C881.869 178.489 881.628 178.247 881.33 178.247H853.329C853.031 178.247 852.789 178.489 852.789 178.787C852.789 179.085 853.031 179.326 853.329 179.326Z" fill="#61A3C5"/>
<path d="M837.914 179.326H849.088C849.386 179.326 849.628 179.085 849.628 178.787C849.628 178.489 849.386 178.247 849.088 178.247H837.914C837.616 178.247 837.374 178.489 837.374 178.787C837.374 179.085 837.616 179.326 837.914 179.326Z" fill="#61A3C5"/>
<path d="M863.728 185.46H881.327C881.625 185.46 881.867 185.218 881.867 184.92C881.867 184.622 881.625 184.381 881.327 184.381H863.728C863.43 184.381 863.188 184.622 863.188 184.92C863.188 185.218 863.43 185.46 863.728 185.46Z" fill="#61A3C5"/>
<path d="M837.914 185.46H859.781C860.079 185.46 860.321 185.218 860.321 184.92C860.321 184.622 860.079 184.381 859.781 184.381H837.914C837.616 184.381 837.374 184.622 837.374 184.92C837.374 185.218 837.616 185.46 837.914 185.46Z" fill="#61A3C5"/>
<path d="M849.186 191.717C849.132 191.931 840.812 202.759 840.76 202.439C840.706 202.119 841.721 190.81 841.721 190.81L849.186 191.717Z" fill="white"/>
<path d="M1139.86 179.864H1091.71C1090.73 179.864 1089.94 179.074 1089.94 178.1V154.89C1089.94 153.917 1090.73 153.126 1091.71 153.126H1139.86C1140.84 153.126 1141.63 153.917 1141.63 154.89V178.1C1141.63 179.074 1140.84 179.864 1139.86 179.864Z" fill="white"/>
<path d="M1136.77 159.929H1093.68C1093.38 159.929 1093.14 159.688 1093.14 159.39C1093.14 159.092 1093.38 158.85 1093.68 158.85H1136.77C1137.07 158.85 1137.31 159.092 1137.31 159.39C1137.31 159.688 1137.07 159.929 1136.77 159.929Z" fill="#61A3C5"/>
<path d="M1121.68 166.063H1093.68C1093.38 166.063 1093.14 165.821 1093.14 165.524C1093.14 165.226 1093.38 164.984 1093.68 164.984H1121.68C1121.98 164.984 1122.22 165.226 1122.22 165.524C1122.22 165.821 1121.98 166.063 1121.68 166.063Z" fill="#61A3C5"/>
<path d="M1137.09 166.063H1125.92C1125.62 166.063 1125.38 165.821 1125.38 165.524C1125.38 165.226 1125.62 164.984 1125.92 164.984H1137.09C1137.39 164.984 1137.63 165.226 1137.63 165.524C1137.63 165.821 1137.39 166.063 1137.09 166.063Z" fill="#61A3C5"/>
<path d="M1111.28 172.197H1093.68C1093.38 172.197 1093.14 171.955 1093.14 171.657C1093.14 171.359 1093.38 171.118 1093.68 171.118H1111.28C1111.58 171.118 1111.82 171.359 1111.82 171.657C1111.82 171.955 1111.58 172.197 1111.28 172.197Z" fill="#61A3C5"/>
<path d="M1137.09 172.197H1115.23C1114.93 172.197 1114.69 171.955 1114.69 171.657C1114.69 171.359 1114.93 171.118 1115.23 171.118H1137.09C1137.39 171.118 1137.63 171.359 1137.63 171.657C1137.63 171.955 1137.39 172.197 1137.09 172.197Z" fill="#61A3C5"/>
<path d="M1125.82 178.454C1125.88 178.668 1134.2 189.495 1134.25 189.176C1134.3 188.856 1133.29 177.547 1133.29 177.547L1125.82 178.454Z" fill="white"/>
<path d="M1037.33 170.982C1037.02 170.461 1036.35 170.293 1035.81 170.569L1032.45 172.286C1032.34 172.34 1032.21 172.32 1032.13 172.238C1032 172.117 1032.02 171.912 1032.16 171.813L1036.75 168.643C1037.27 168.281 1037.33 167.62 1036.87 167.175C1036.41 166.73 1035.61 166.666 1035.08 167.028L1030.41 170.26C1030.3 170.336 1030.15 170.323 1030.06 170.232L1029.99 170.168C1029.88 170.062 1029.88 169.887 1029.99 169.777L1034.37 165.249C1034.79 164.813 1034.83 164.116 1034.42 163.667C1033.98 163.174 1033.22 163.168 1032.76 163.639L1028.35 168.194C1028.25 168.304 1028.07 168.307 1027.96 168.201L1027.75 167.993C1027.65 167.896 1027.63 167.741 1027.72 167.631L1031.23 162.902C1031.59 162.417 1031.54 161.717 1031.08 161.326C1030.57 160.897 1029.82 160.99 1029.43 161.514C1029.43 161.514 1023.68 168.436 1022.7 169.447L1022.03 166.223C1022.02 165.595 1021.51 165.094 1020.88 165.103C1020.25 165.113 1019.75 165.629 1019.75 166.26L1019.02 173.553C1019.03 173.963 1019.61 174.535 1020.2 174.883C1024.65 179.911 1025.38 180.65 1026.7 181.893L1031.52 176.571C1032.91 175.036 1034.57 173.765 1036.42 172.823L1036.88 172.586C1037.46 172.281 1037.67 171.552 1037.33 170.982Z" fill="#FE9F73"/>
<path d="M978.015 369.785L962.782 369.994L962.562 355.626L977.736 353.73L978.015 369.785Z" fill="#FE9F73"/>
<path d="M993.668 372.371H962.564V366.112C962.564 366.112 964.827 363.107 968.273 364.642C968.273 364.642 973.372 368.334 977.966 363.923L989.482 368.867C989.479 368.867 993.668 370.242 993.668 372.371Z" fill="#3AA1C9"/>
<path d="M962.562 374.563H994.586C994.824 374.563 995.016 374.37 995.016 374.133V372.803C995.016 372.565 994.824 372.373 994.586 372.373H962.562V374.563Z" fill="#472A31"/>
<path d="M981.372 365.385C980.33 367.015 978.233 370.288 976.901 372.371H974.781C975.971 370.51 978.469 366.611 979.71 364.67L981.372 365.385Z" fill="#D7E4F7"/>
<path d="M980.299 372.371H978.179C979.148 370.858 981.037 367.906 982.373 365.816L984.036 366.531C982.913 368.286 981.357 370.72 980.299 372.371Z" fill="#D7E4F7"/>
<path d="M947.298 369.785L932.065 369.994L931.847 355.626L947.019 353.73L947.298 369.785Z" fill="#FE9F73"/>
<path d="M953.409 245.415C953.914 260.252 956.108 318.294 960.721 356.267C961.026 358.769 963.146 360.658 965.667 360.652C968.459 360.646 972.341 360.311 976.643 358.998C978.722 358.363 980.167 356.472 980.201 354.298L982.077 238.754C982.082 238.473 982.062 238.193 982.019 237.914L981.93 237.344C981.447 234.199 978.183 232.305 975.212 233.445L956.607 240.594C954.62 241.354 953.336 243.288 953.409 245.415Z" fill="#FF424D"/>
<path d="M928.462 242.42C928.462 242.42 927.194 313.79 930.497 357.815C930.653 359.898 932.309 361.546 934.392 361.703C937.341 361.928 941.832 361.893 946.896 360.55C948.613 360.095 949.863 358.612 950.016 356.841L958.848 254.489L964.286 226.072L928.462 242.42Z" fill="#EF3A4C"/>
<path d="M962.95 372.371H931.847V366.112C931.847 366.112 934.109 363.107 937.555 364.642C937.555 364.642 942.654 368.334 947.248 363.923L958.764 368.867C958.762 368.867 962.95 370.242 962.95 372.371Z" fill="#4CB7D8"/>
<path d="M931.847 374.563H963.872C964.109 374.563 964.301 374.37 964.301 374.133V372.803C964.301 372.565 964.109 372.373 963.872 372.373H931.847V374.563Z" fill="#683D46"/>
<path d="M950.655 365.385C949.612 367.015 947.516 370.288 946.184 372.371H944.063C945.253 370.51 947.751 366.611 948.992 364.67L950.655 365.385Z" fill="#D7E4F7"/>
<path d="M949.584 372.371H947.464C948.433 370.858 950.322 367.906 951.659 365.816L953.321 366.531C952.198 368.286 950.642 370.72 949.584 372.371Z" fill="#D7E4F7"/>
<path d="M983.174 260.198L983.349 259.954L982.432 204.876C982.432 204.876 999.34 217.025 1004.41 217.259C1009.47 217.492 1030.43 184.173 1030.43 184.173C1026.01 173.316 1016.71 171.811 1016.71 171.811L999.412 192.129L979.142 172.43C976.439 170.673 955.662 170.293 955.662 170.293C955.662 170.293 939.351 169.395 936.65 171.152C933.947 172.91 916.668 202.186 915.124 215.318C913.58 228.451 915.124 236.956 924.487 238.506L927.894 238.584L928.155 260.196C928.157 260.198 947.026 264.749 983.174 260.198Z" fill="#61A3C5"/>
<path d="M1016.72 171.811L999.416 192.129L979.146 172.43C978.131 171.77 974.565 171.303 970.506 170.979L958.325 202.068L939.934 170.293C933.492 170.355 931.827 171.977 930.428 172.888C927.725 174.645 916.672 202.186 915.126 215.318C913.582 228.451 915.126 236.956 924.489 238.506L927.896 238.584L926.922 260.196C926.922 260.196 947.028 264.745 983.174 260.196L983.349 259.952L982.432 204.874C982.432 204.874 999.34 217.023 1004.41 217.256C1009.47 217.49 1030.43 184.171 1030.43 184.171C1026.01 173.316 1016.72 171.811 1016.72 171.811Z" fill="#FECC86"/>
<path d="M933.079 219.079L932.692 218.591L936.46 215.18L937.898 196.474L938.491 196.525L937.034 215.497L933.079 219.079Z" fill="#21111D"/>
<path d="M927.887 238.905L924.441 238.823C919.845 238.061 916.9 235.624 915.434 231.366C914.163 227.674 913.971 222.561 914.828 215.279L915.419 215.359C913.673 230.202 916.309 236.82 924.512 238.188L927.898 238.266L927.887 238.905Z" fill="#21111D"/>
<path d="M999.622 197.566L999.128 192.285L979.499 173.21C978.061 171.811 975.263 171.793 975.235 171.793V171.154C975.363 171.154 978.29 171.172 979.899 172.737L999.698 191.978L1000.22 197.503L999.622 197.566Z" fill="#21111D"/>
<path d="M999.636 192.346L999.195 191.914L1016.61 171.465L1016.77 171.493C1016.86 171.509 1026.06 173.234 1030.7 184.037L1030.16 184.305C1025.99 174.587 1018.04 172.433 1016.83 172.158L999.636 192.346Z" fill="#21111D"/>
<path d="M960.579 262.415C960.402 262.415 960.227 262.415 960.057 262.413L960.063 261.774C967.524 261.858 980.829 260.179 982.874 259.915L982.133 199.58L982.729 199.572L983.476 260.481L983.211 260.515C983.064 260.535 968.766 262.415 960.579 262.415Z" fill="#21111D"/>
<path d="M949.998 182.243C946.993 180.237 944.81 177.128 943.854 173.495L944.428 173.322C945.343 176.805 947.433 179.78 950.313 181.701L949.998 182.243Z" fill="#21111D"/>
<path d="M950.85 147.334C950.85 147.334 955.367 145.412 959.378 146.792C961.701 147.59 963.242 149.797 963.242 152.254V154.655L950.883 149.376C950.883 149.376 948.927 150.3 949.084 150.019C949.24 149.739 950.85 147.334 950.85 147.334Z" fill="#FE9F73"/>
<path d="M963.241 151.982V162.108C963.241 162.108 963.392 165.727 960.225 166.178L960.817 171.005C961.037 172.8 959.964 174.518 958.241 175.064C957.399 175.332 956.393 175.526 955.251 175.526C951.633 175.526 949.672 172.813 949.372 171.457C949.07 170.101 949.975 163.617 949.975 163.617L949.865 160.433L950.277 148.089L963.241 151.982Z" fill="#FE9F73"/>
<path d="M954.506 156.758C954.469 156.758 954.43 156.745 954.402 156.715C954.342 156.656 954.34 156.561 954.398 156.501C954.419 156.479 956.492 154.359 958.388 155.886C958.452 155.937 958.463 156.032 958.411 156.097C958.359 156.162 958.264 156.173 958.2 156.121C956.52 154.769 954.694 156.63 954.618 156.71C954.586 156.743 954.547 156.758 954.506 156.758Z" fill="#21111D"/>
<path d="M960.721 155.853C960.678 155.853 960.637 155.836 960.607 155.801C960.553 155.739 960.559 155.644 960.622 155.59C960.682 155.538 962.12 154.307 963.029 155.087C963.092 155.141 963.1 155.236 963.046 155.298C962.992 155.361 962.897 155.37 962.835 155.316C962.122 154.705 960.834 155.806 960.821 155.819C960.79 155.84 960.756 155.853 960.721 155.853Z" fill="#21111D"/>
<path d="M957.554 157.367C957.554 157.617 957.351 157.818 957.103 157.818C956.852 157.818 956.651 157.615 956.651 157.367C956.651 157.116 956.854 156.915 957.103 156.915C957.353 156.915 957.554 157.116 957.554 157.367Z" fill="black"/>
<path d="M961.911 157.367C962.16 157.367 962.362 157.165 962.362 156.915C962.362 156.666 962.16 156.464 961.911 156.464C961.662 156.464 961.46 156.666 961.46 156.915C961.46 157.165 961.662 157.367 961.911 157.367Z" fill="black"/>
<path d="M950.851 147.176C950.851 147.176 947.021 146.992 946.049 150.343C945.078 153.694 946.734 155.465 946.766 156.464C946.801 157.464 946.123 164.198 950.849 163.695L952.125 152.571L950.479 148.143L950.851 147.176Z" fill="#FECC86"/>
<path d="M953.819 157.209C953.819 158.707 952.604 159.923 951.105 159.923C949.607 159.923 948.392 158.707 948.392 157.209C948.392 155.711 949.607 154.495 951.105 154.495C952.604 154.495 953.819 155.711 953.819 157.209Z" fill="#FE9F73"/>
<path d="M950.905 158.874C950.341 158.874 949.963 158.451 949.84 158.027C949.694 157.526 949.862 157.041 950.268 156.788C950.868 156.415 951.414 156.654 951.693 156.838C951.576 156.529 951.393 156.304 951.144 156.171C950.609 155.877 949.946 156.091 949.94 156.093C949.901 156.106 949.858 156.084 949.845 156.045C949.832 156.007 949.853 155.963 949.892 155.95C949.922 155.94 950.622 155.713 951.216 156.039C951.559 156.227 951.79 156.559 951.909 157.028L951.973 157.291L951.781 157.101C951.753 157.073 951.11 156.447 950.346 156.92C949.922 157.181 949.886 157.66 949.983 157.989C950.082 158.33 950.384 158.727 950.903 158.727C950.907 158.727 950.913 158.727 950.918 158.727C950.959 158.727 950.993 158.759 950.993 158.8C950.993 158.841 950.961 158.876 950.92 158.876C950.915 158.874 950.911 158.874 950.905 158.874Z" fill="#F07162"/>
<path d="M952.887 163.105C952.887 163.105 953.098 169.162 960.663 169.74L960.227 166.18C960.227 166.18 955.322 167.167 952.887 163.105Z" fill="#F07162"/>
<path d="M959.149 160.417C959.117 160.417 959.089 160.398 959.078 160.366C959.065 160.327 959.087 160.284 959.125 160.271L960.637 159.772L960.16 156.216C960.153 156.175 960.183 156.136 960.224 156.132C960.265 156.125 960.304 156.155 960.309 156.197L960.803 159.878L959.173 160.417C959.166 160.417 959.158 160.417 959.149 160.417Z" fill="#F07162"/>
<path d="M949.864 164.459L950.389 159.355L951.656 159.495V164.606L949.864 164.459Z" fill="#FE9F73"/>
<path d="M951.559 147.074C951.559 147.074 950.671 149.192 952.127 152.727C953.582 156.261 948.392 151.41 948.392 151.41C948.392 151.41 948.752 146.237 951.559 147.074Z" fill="#FECC86"/>
<path d="M952.129 152.727C952.129 152.727 963.653 152.045 964.363 149.344C965.074 146.645 962.364 146.574 962.364 146.574C962.364 146.574 962.872 142.737 959.391 143.875C955.911 145.013 949.461 144.864 947.647 148.089C945.831 151.315 952.129 152.727 952.129 152.727Z" fill="#FECC86"/>
<path d="M951.89 154.655L952.386 156.758L952.887 156.13C952.887 156.13 953.871 153.109 953.191 151.66C952.511 150.212 949.789 152.295 949.789 152.295L951.89 154.655Z" fill="#FECC86"/>
<path d="M949.393 168.835L956.295 174.071L960.662 169.74L963.575 170.558L960.662 178.32L956.489 175.76L952.184 178.601L946.398 170.066L949.393 168.835Z" fill="#EDFCFB"/>
<path d="M961.144 161.689C961.097 161.676 957.992 161.406 957.992 161.406C957.992 161.406 958.301 162.717 959.454 162.82C960.609 162.924 961.144 161.689 961.144 161.689Z" fill="#FBFDFC"/>
<path d="M977.153 212.15H977.08H969.427L971.363 234.937H977.08H977.153H983.077L984.807 212.15H977.153Z" fill="#49263E"/>
<path d="M982.764 208.154H977.155H977.082H971.473C970.816 208.154 970.283 208.692 970.283 209.352H977.082H977.155H983.953C983.953 208.689 983.42 208.154 982.764 208.154Z" fill="#CE1D37"/>
<path d="M984.636 209.968C984.56 209.609 984.247 209.352 983.885 209.352H977.155H977.082H970.353C969.99 209.352 969.675 209.609 969.601 209.968L968.962 213.014C968.861 213.495 969.226 213.949 969.714 213.949H977.082H977.155H984.524C985.012 213.949 985.376 213.495 985.275 213.014L984.636 209.968Z" fill="#EF3A4C"/>
<path d="M969.807 219.148L970.308 228.41H977.069H977.164H983.926L984.427 219.148H977.164H977.069H969.807Z" fill="#EF3A4C"/>
<path d="M983.926 228.57H970.154L969.645 219.154C969.64 219.066 969.707 218.99 969.798 218.984C969.887 218.979 969.962 219.046 969.966 219.135L970.459 228.246H983.926C984.014 228.246 984.088 228.317 984.088 228.408C984.088 228.499 984.016 228.57 983.926 228.57Z" fill="#21111D"/>
<path d="M980.743 216.902C980.717 216.902 980.689 216.896 980.663 216.881C980.586 216.838 980.56 216.738 980.603 216.661L981.918 214.34C981.961 214.262 982.06 214.236 982.138 214.279C982.216 214.322 982.241 214.422 982.198 214.499L980.884 216.82C980.853 216.874 980.799 216.902 980.743 216.902Z" fill="#21111D"/>
<path d="M980.963 218.235C980.935 218.235 980.907 218.228 980.883 218.213C980.806 218.168 980.78 218.07 980.825 217.993L982.015 215.95C982.06 215.873 982.157 215.847 982.235 215.892C982.313 215.937 982.338 216.034 982.293 216.112L981.104 218.155C981.073 218.206 981.019 218.235 980.963 218.235Z" fill="#21111D"/>
<path d="M979.527 225.845C982.254 223.272 979.398 222.838 979.398 222.838C980.728 221.296 980.419 220.575 979.931 220.245C979.573 220.003 979.124 219.975 978.728 220.139C977.474 220.661 973.653 222.268 971.317 223.423C969.657 223.298 970.186 220.299 970.928 218.761C971.311 217.969 971.336 216.663 969.536 217.98C968.064 219.055 965.851 222.598 965.851 222.598L956.598 221.646L957.977 235.306C957.977 235.306 968.538 235.149 970.13 235.136C971.721 235.123 977.051 233.179 978.659 231.679C981.58 228.954 979.743 228.816 979.743 228.816C982.53 225.683 979.527 225.845 979.527 225.845Z" fill="#FE9F73"/>
<path d="M976.058 225.094C975.978 225.1 975.898 225.053 975.865 224.969C975.824 224.865 975.872 224.744 975.969 224.701C977.338 224.096 979.268 222.684 979.287 222.671C979.373 222.607 979.494 222.632 979.553 222.725C979.613 222.818 979.589 222.946 979.503 223.01C979.423 223.069 977.521 224.459 976.114 225.081C976.096 225.087 976.077 225.092 976.058 225.094Z" fill="#F07162"/>
<path d="M976.246 227.683C976.155 227.691 976.071 227.629 976.047 227.531C976.019 227.421 976.079 227.309 976.183 227.281C977.923 226.78 979.404 225.69 979.417 225.679C979.503 225.614 979.624 225.638 979.682 225.731C979.743 225.824 979.721 225.951 979.635 226.016C979.572 226.061 978.089 227.158 976.28 227.678C976.269 227.68 976.258 227.683 976.246 227.683Z" fill="#F07162"/>
<path d="M976.887 230.599C976.799 230.606 976.715 230.548 976.689 230.455C976.658 230.347 976.717 230.232 976.816 230.2C978.308 229.721 979.614 228.667 979.627 228.656C979.711 228.587 979.832 228.607 979.895 228.695C979.959 228.786 979.942 228.913 979.858 228.982C979.802 229.028 978.483 230.092 976.924 230.593C976.913 230.595 976.9 230.597 976.887 230.599Z" fill="#F07162"/>
<path d="M951.279 216.335L960.588 216.974C960.588 216.974 962.471 223.334 960.208 236.228C959.988 237.48 959.526 239.62 959.526 239.62C959.526 239.62 950.072 240.427 948.589 237.137C947.656 235.071 949.694 226.147 949.694 226.147L951.279 216.335Z" fill="#FECC86"/>
<path d="M959.756 239.948L927.887 238.905L927.904 238.266L959.294 239.292C959.743 237.301 962.617 223.911 960.376 217.28L936.727 215.657L936.766 215.018L960.797 216.667L960.866 216.857C963.476 224.107 959.966 239.065 959.815 239.698L959.756 239.948Z" fill="#21111D"/>
<path d="M969.807 216.743L970.076 219.148H971.888L971.627 216.566L969.807 216.743Z" fill="#49263E"/>
<path d="M970.076 219.148L970.396 223.546C970.396 223.546 971.078 223.764 973.118 222.574C975.158 221.385 971.767 219.148 971.767 219.148H970.076Z" fill="#EF3A4C"/>
<path d="M1038.73 137.328C1038.73 137.328 1042.35 139.194 1040.54 146.489L1039.17 145.783L1039.63 141.908L1038.73 137.328Z" fill="black"/>
<path d="M1026.06 141.854V152.545C1026.06 152.545 1025.92 156.16 1029.06 156.611L1028.47 161.432C1028.25 163.224 1029.32 164.941 1031.03 165.485C1031.86 165.75 1032.86 165.947 1033.99 165.947C1037.58 165.947 1039.53 163.237 1039.83 161.881C1040.13 160.525 1039.23 154.05 1039.23 154.05L1039.34 150.868L1038.93 138.54L1026.06 141.854Z" fill="#FE9F73"/>
<path d="M1034.73 147.2C1034.77 147.2 1034.81 147.187 1034.84 147.159C1034.9 147.1 1034.9 147.005 1034.84 146.945C1034.82 146.923 1032.76 144.805 1030.88 146.329C1030.82 146.381 1030.81 146.476 1030.86 146.541C1030.91 146.606 1031.01 146.617 1031.07 146.565C1032.74 145.213 1034.55 147.074 1034.63 147.154C1034.66 147.184 1034.7 147.2 1034.73 147.2Z" fill="black"/>
<path d="M1028.57 146.297C1028.61 146.297 1028.65 146.28 1028.68 146.245C1028.73 146.183 1028.73 146.088 1028.66 146.034C1028.6 145.982 1027.18 144.753 1026.27 145.531C1026.21 145.585 1026.2 145.68 1026.26 145.742C1026.31 145.805 1026.41 145.814 1026.47 145.76C1027.17 145.149 1028.45 146.25 1028.47 146.26C1028.5 146.284 1028.53 146.297 1028.57 146.297Z" fill="black"/>
<path d="M1031.71 147.809C1031.71 148.059 1031.91 148.26 1032.16 148.26C1032.41 148.26 1032.61 148.057 1032.61 147.809C1032.61 147.558 1032.41 147.357 1032.16 147.357C1031.91 147.357 1031.71 147.56 1031.71 147.809Z" fill="black"/>
<path d="M1026.94 147.357C1026.94 147.608 1027.14 147.808 1027.39 147.808C1027.64 147.808 1027.84 147.606 1027.84 147.357C1027.84 147.107 1027.64 146.906 1027.39 146.906C1027.14 146.906 1026.94 147.107 1026.94 147.357Z" fill="black"/>
<path d="M1036.95 147.966C1036.95 149.462 1038.15 150.676 1039.64 150.676C1041.13 150.676 1042.34 149.462 1042.34 147.966C1042.34 146.47 1041.13 145.256 1039.64 145.256C1038.15 145.256 1036.95 146.468 1036.95 147.966Z" fill="#FE9F73"/>
<path d="M1039.84 149.626C1040.4 149.626 1040.77 149.203 1040.89 148.78C1041.04 148.279 1040.87 147.793 1040.47 147.541C1039.87 147.167 1039.33 147.407 1039.05 147.59C1039.17 147.284 1039.35 147.059 1039.6 146.923C1040.13 146.63 1040.79 146.843 1040.79 146.846C1040.83 146.859 1040.88 146.837 1040.89 146.798C1040.9 146.759 1040.88 146.716 1040.84 146.703C1040.81 146.692 1040.12 146.466 1039.53 146.792C1039.19 146.979 1038.96 147.312 1038.84 147.778L1038.78 148.04L1038.97 147.85C1038.99 147.821 1039.63 147.195 1040.39 147.668C1040.81 147.929 1040.85 148.407 1040.75 148.737C1040.65 149.078 1040.35 149.475 1039.84 149.475C1039.84 149.475 1039.83 149.475 1039.83 149.475C1039.78 149.475 1039.75 149.508 1039.75 149.549C1039.75 149.59 1039.78 149.624 1039.82 149.624C1039.83 149.626 1039.83 149.626 1039.84 149.626Z" fill="#F07162"/>
<path d="M1025.54 150.844C1025.54 150.844 1024.57 158.083 1029.34 158.343C1036.18 158.71 1036.84 154.784 1037.25 151.572L1037.32 144.941L1037.1 143.018C1036.61 143.568 1036.32 144.257 1036.25 144.989C1036.11 146.578 1035.76 150.861 1035.37 151.051C1034.81 151.319 1026.61 150.147 1025.54 150.844Z" fill="black"/>
<path d="M1030.13 150.855C1030.16 150.855 1030.19 150.835 1030.2 150.803C1030.21 150.764 1030.19 150.721 1030.15 150.708L1028.65 150.209L1029.12 146.658C1029.13 146.617 1029.1 146.578 1029.06 146.574C1029.02 146.567 1028.98 146.597 1028.97 146.638L1028.48 150.315L1030.1 150.853C1030.11 150.855 1030.12 150.855 1030.13 150.855Z" fill="#F07162"/>
<path d="M1031.29 152.323C1031.24 152.314 1028.32 152.245 1028.32 152.245C1028.32 152.245 1028.69 153.459 1029.77 153.487C1030.86 153.515 1031.29 152.323 1031.29 152.323Z" fill="#FBFDFC"/>
<path d="M1028.15 161.443L1028.62 158.714C1028.62 158.714 1036.69 158.504 1039.89 157.723L1040.33 161.536C1040.33 161.536 1033.17 164.835 1028.15 161.443Z" fill="#CEE4EF"/>
<path d="M1037.11 143.141L1038.46 141.908L1039.86 145.272C1039.86 145.272 1038.13 145.557 1038.1 147.357C1038.07 149.156 1039.04 151.965 1035.93 156.002C1032.81 160.037 1036.18 149.978 1036.21 149.626C1036.24 149.277 1037.11 143.141 1037.11 143.141Z" fill="black"/>
<path d="M1038.73 137.328C1037.29 135.897 1032.29 135.081 1028.72 137.231V137.227C1024.65 139.215 1025.93 143.264 1026.06 143.385L1026.12 143.344C1026.1 143.436 1026.08 143.531 1026.06 143.624C1026.06 143.624 1026.23 143.352 1026.6 142.974L1028.2 141.75C1029.09 141.245 1030.29 140.811 1031.85 140.71C1033.39 140.608 1034.74 140.694 1035.85 141.036C1036.14 141.953 1036.38 143.773 1036.04 147.357C1035.51 152.824 1037.9 146.193 1038.77 143.652C1038.96 144.127 1039.09 144.661 1039.16 145.272C1039.16 145.272 1041.62 140.196 1038.73 137.328Z" fill="black"/>
<path d="M1026.06 144.857C1026.06 144.857 1025.96 142.663 1026.06 142.182C1026.17 141.701 1031.05 140.321 1033.73 140.688C1036.4 141.055 1031.22 144 1031.16 144C1031.1 144.002 1026.06 144.857 1026.06 144.857Z" fill="#FE9F73"/>
<path d="M1035.34 141.251L1037.92 138.846L1035.49 142.363L1035.34 141.251Z" fill="#FE9F73"/>
<path d="M1035.34 136.517C1035.34 136.517 1034.81 131.331 1037.7 132.46C1040.58 133.587 1041.08 135.977 1038.46 137.555C1035.85 139.131 1035.34 136.517 1035.34 136.517Z" fill="black"/>
<path d="M1043.52 370.296L1056.54 370.476L1056.72 358.195L1043.76 356.576L1043.52 370.296Z" fill="#FE9F73"/>
<path d="M1030.14 372.507H1056.72V367.157C1056.72 367.157 1054.79 364.59 1051.85 365.901C1051.85 365.901 1047.49 369.057 1043.56 365.285L1033.72 369.51C1033.72 369.51 1030.14 370.687 1030.14 372.507Z" fill="#4C222E"/>
<path d="M1056.72 374.379H1029.39C1029.17 374.379 1028.99 374.2 1028.99 373.978V372.909C1028.99 372.687 1029.17 372.507 1029.39 372.507H1056.72V374.379Z" fill="#8CD2F9"/>
<path d="M1014.05 370.296L1027.07 370.476L1027.26 358.195L1014.29 356.576L1014.05 370.296Z" fill="#FE9F73"/>
<path d="M1000.67 372.507H1027.25V367.157C1027.25 367.157 1025.32 364.59 1022.38 365.901C1022.38 365.901 1018.02 369.057 1014.09 365.285L1004.25 369.51C1004.25 369.51 1000.67 370.687 1000.67 372.507Z" fill="#4C222E"/>
<path d="M1027.26 374.379H999.92C999.698 374.379 999.519 374.2 999.519 373.978V372.909C999.519 372.687 999.698 372.507 999.92 372.507H1027.26V374.379Z" fill="#8CD2F9"/>
<path d="M1013.69 259.962C1015.68 262.519 1016.2 259.999 1016.2 259.999C1017.41 261.262 1018.02 261.023 1018.32 260.604C1018.54 260.297 1018.59 259.9 1018.47 259.539C1018.11 258.397 1016.98 254.915 1016.15 252.779C1016.34 251.309 1018.8 251.931 1020.04 252.671C1020.68 253.051 1021.76 253.142 1020.76 251.471C1019.95 250.106 1017.13 247.958 1017.13 247.958L1018.42 239.773L1007 240.306C1007 240.306 1006.56 249.711 1006.49 251.128C1006.41 252.544 1007.73 257.385 1008.89 258.894C1011 261.631 1011.21 260.003 1011.21 260.003C1013.66 262.644 1013.69 259.962 1013.69 259.962Z" fill="#FE9F73"/>
<path d="M1014.5 256.914C1014.5 256.843 1014.55 256.774 1014.62 256.75C1014.71 256.72 1014.8 256.767 1014.83 256.856C1015.26 258.106 1016.33 259.893 1016.34 259.911C1016.39 259.991 1016.36 260.096 1016.28 260.144C1016.2 260.191 1016.1 260.166 1016.05 260.086C1016 260.01 1014.95 258.248 1014.51 256.966C1014.51 256.948 1014.5 256.931 1014.5 256.914Z" fill="#F07162"/>
<path d="M1012.34 256.951C1012.34 256.871 1012.4 256.797 1012.48 256.78C1012.57 256.761 1012.66 256.821 1012.68 256.914C1013 258.488 1013.83 259.859 1013.84 259.874C1013.89 259.954 1013.86 260.06 1013.78 260.109C1013.7 260.159 1013.59 260.133 1013.55 260.053C1013.51 259.995 1012.68 258.62 1012.35 256.985C1012.34 256.972 1012.34 256.961 1012.34 256.951Z" fill="#F07162"/>
<path d="M1009.89 257.374C1009.89 257.296 1009.94 257.223 1010.02 257.205C1010.11 257.184 1010.2 257.24 1010.22 257.333C1010.54 258.684 1011.34 259.9 1011.35 259.913C1011.41 259.991 1011.38 260.096 1011.31 260.15C1011.23 260.202 1011.12 260.181 1011.07 260.103C1011.03 260.051 1010.22 258.823 1009.89 257.413C1009.89 257.398 1009.89 257.385 1009.89 257.374Z" fill="#F07162"/>
<path d="M1005.95 243.837L1006.15 247.816C1006.15 247.816 1008.23 249.202 1012.04 249.098L1011.08 243.837H1005.95Z" fill="#E2F2F1"/>
<path d="M1037.06 231.724C1037.06 231.724 1035.33 313.174 1029.38 360.181C1029.38 360.181 1021.47 362.673 1011.51 358.016L1011.08 237.968L1009.65 219.983L1037.06 231.724Z" fill="#3AAAA4"/>
<path d="M1057.96 232.512C1057.96 232.512 1061.44 312.805 1057.54 360.119C1057.54 360.119 1050.14 364.78 1040 360.745L1027.73 245.385L1022.52 214.519L1057.96 232.512Z" fill="#7FC6A6"/>
<path d="M1047.5 362.565C1053.09 362.565 1057.6 360.395 1057.66 360.365L1057.79 360.304L1057.81 360.168C1061.15 342.121 1059.02 253.187 1059 252.291C1058.99 252.142 1058.87 252.024 1058.72 252.024C1058.72 252.024 1058.72 252.024 1058.72 252.024C1058.57 252.028 1058.45 252.153 1058.45 252.304C1058.47 253.198 1060.59 341.622 1057.3 359.929C1056.19 360.434 1047.82 363.996 1040.11 360.494C1039.98 360.432 1039.81 360.492 1039.75 360.63C1039.69 360.768 1039.75 360.93 1039.89 360.993C1042.45 362.157 1045.08 362.565 1047.5 362.565Z" fill="black"/>
<path d="M1023.68 361.069C1025.49 361.069 1027.42 360.892 1029.44 360.451C1029.59 360.419 1029.68 360.272 1029.65 360.125C1029.62 359.976 1029.47 359.885 1029.33 359.916C1020.23 361.904 1012.88 358.411 1011.78 357.852L1011.36 249.094C1011.36 248.943 1011.24 248.822 1011.09 248.822C1010.93 248.822 1010.81 248.945 1010.81 249.096L1011.24 358.18L1011.38 358.257C1011.44 358.292 1016.53 361.069 1023.68 361.069Z" fill="black"/>
<path d="M1014.78 162.697C1014.78 162.697 1008.28 165.349 1007.2 170.491C1006.12 175.634 1003.3 237.726 1005.25 243.837H1014.78V162.697V162.697Z" fill="#4C222E"/>
<path d="M1061.32 198.486L1061.83 238.247C1061.83 238.247 1031.02 247.023 1011.09 236.558C1011.09 236.558 1014.57 166.67 1015.2 163.591C1015.94 159.964 1035.82 159.668 1044.11 160.558C1044.11 160.558 1056.97 160.236 1063.84 164.032L1061.32 198.486Z" fill="#E2F2F1"/>
<path d="M1061.83 187.865L1061.18 248.82C1061.18 248.82 1045.42 254.874 1037.46 251.689C1037.46 251.689 1037.51 162.846 1040.76 160.137C1041.16 160.147 1049.34 160.305 1055.17 161.037C1061.01 161.769 1061.83 187.865 1061.83 187.865Z" fill="#4C222E"/>
<path d="M1027.58 160.137C1027.58 160.137 1025.93 239.842 1024.31 251.689C1024.31 251.689 1017.69 252.145 1009.24 249.105C1009.24 249.105 1010.76 165.955 1012.94 163.734C1015.12 161.514 1027.58 160.137 1027.58 160.137Z" fill="#4C222E"/>
<path d="M1039.71 160.247C1039.71 160.247 1029.4 160.003 1027.68 160.329C1027.68 160.329 1029.03 164.39 1029.26 164.552C1029.48 164.714 1036.16 166.074 1036.16 166.074C1036.16 166.074 1038.43 164.733 1038.54 164.278C1038.64 163.82 1039.71 160.247 1039.71 160.247Z" fill="#E2F2F1"/>
<path d="M1061.83 207.685C1061.98 207.685 1062.1 207.562 1062.1 207.411V194.45C1062.1 194.299 1061.98 194.176 1061.83 194.176C1061.68 194.176 1061.55 194.299 1061.55 194.45V207.411C1061.55 207.562 1061.68 207.685 1061.83 207.685Z" fill="black"/>
<path d="M1037.47 251.963C1037.62 251.963 1037.74 251.84 1037.74 251.689C1037.6 195.126 1039.15 175.468 1039.17 175.276C1039.18 175.125 1039.07 174.993 1038.92 174.98C1038.77 174.971 1038.63 175.079 1038.62 175.231C1038.61 175.423 1037.06 195.096 1037.19 251.689C1037.19 251.84 1037.31 251.963 1037.47 251.963Z" fill="black"/>
<path d="M1009.24 249.379C1009.24 249.379 1009.24 249.379 1009.25 249.379C1009.4 249.375 1009.52 249.249 1009.51 249.098C1008.98 224.332 1013.33 170.774 1013.38 170.237C1013.39 170.086 1013.28 169.954 1013.13 169.941C1012.97 169.93 1012.84 170.04 1012.83 170.191C1012.79 170.729 1008.43 224.314 1008.97 249.109C1008.97 249.26 1009.09 249.379 1009.24 249.379Z" fill="black"/>
<path d="M1027.22 176.122C1027.37 176.122 1027.49 176.004 1027.5 175.855L1027.86 159.839L1027.56 159.862C1027 159.906 1013.85 160.983 1009.96 165.5C1009.86 165.614 1009.88 165.787 1009.99 165.886C1010.11 165.986 1010.28 165.973 1010.38 165.858C1013.8 161.879 1025.28 160.629 1027.3 160.437L1026.95 175.844C1026.95 175.995 1027.07 176.12 1027.22 176.124C1027.22 176.122 1027.22 176.122 1027.22 176.122Z" fill="black"/>
<path d="M1082.8 217.429C1081.12 208.933 1084.79 203.564 1087.53 200.733C1088.48 203.449 1089.15 206.189 1089.44 208.92C1089.82 212.586 1087.85 217.436 1084.82 222.497C1083.93 221.238 1083.22 219.584 1082.8 217.429Z" fill="#FEC786"/>
<path d="M1060.98 167.657C1060.93 167.657 1060.87 167.631 1060.83 167.583C1059.03 165.187 1056.1 164.213 1056.07 164.202C1055.97 164.17 1055.92 164.066 1055.95 163.967C1055.98 163.87 1056.09 163.816 1056.18 163.848C1056.31 163.889 1059.26 164.865 1061.13 167.359C1061.19 167.441 1061.18 167.557 1061.09 167.62C1061.06 167.646 1061.02 167.657 1060.98 167.657Z" fill="#21111D"/>
<path d="M1060.63 169.38C1060.57 169.38 1060.52 169.354 1060.48 169.306C1058.68 166.91 1055.75 165.936 1055.72 165.925C1055.62 165.893 1055.57 165.789 1055.6 165.69C1055.63 165.593 1055.73 165.539 1055.83 165.571C1055.96 165.612 1058.91 166.588 1060.78 169.082C1060.84 169.164 1060.82 169.28 1060.74 169.343C1060.71 169.369 1060.67 169.38 1060.63 169.38Z" fill="#21111D"/>
<path d="M1053.07 361.904C1053.21 361.904 1053.34 361.783 1053.34 361.634L1053.82 329.424C1053.82 329.272 1053.7 329.147 1053.55 329.145C1053.55 329.145 1053.55 329.145 1053.55 329.145C1053.4 329.145 1053.27 329.266 1053.27 329.415L1052.79 361.626C1052.79 361.777 1052.91 361.902 1053.06 361.904C1053.06 361.904 1053.06 361.904 1053.07 361.904Z" fill="black"/>
<path d="M1023.35 361.071C1023.5 361.071 1023.62 360.959 1023.63 360.812L1025.43 329.432C1025.44 329.281 1025.33 329.151 1025.17 329.143C1025.02 329.128 1024.89 329.249 1024.88 329.402L1023.08 360.782C1023.07 360.933 1023.18 361.062 1023.34 361.071C1023.34 361.071 1023.35 361.071 1023.35 361.071Z" fill="black"/>
<path d="M1082.88 224.874L1033.56 224.706L1033.79 194.447L1083.11 194.617L1082.88 224.874Z" fill="#8CD2F9"/>
<path d="M1045.92 224.747L1033.56 224.706L1033.79 194.447L1046.15 194.49L1045.92 224.747Z" fill="#3AA1C9"/>
<path d="M1050.76 201.275L1040.94 201.243L1040.96 198.943L1050.77 198.976L1050.76 201.275Z" fill="#D7E4F7"/>
<path d="M1050.62 218.764L1040.81 218.729L1040.83 216.432L1050.64 216.464L1050.62 218.764Z" fill="#D7E4F7"/>
<g opacity="0.5">
<g opacity="0.5">
<g opacity="0.5">
<path opacity="0.5" d="M1080.44 208.745L1062.77 208.683L1062.78 208.191L1080.45 208.251L1080.44 208.745Z" fill="#D7E4F7"/>
</g>
</g>
</g>
<g opacity="0.5">
<g opacity="0.5">
<g opacity="0.5">
<path opacity="0.5" d="M1080.43 210.514L1062.76 210.453L1062.77 209.961L1080.43 210.022L1080.43 210.514Z" fill="#D7E4F7"/>
</g>
</g>
</g>
<path d="M1063.46 225.081C1063.46 225.081 1063.46 225.081 1063.46 225.081L1033.29 224.977L1033.52 194.446C1033.52 194.295 1033.64 194.174 1033.79 194.174H1033.8C1033.95 194.176 1034.07 194.299 1034.07 194.45L1033.84 224.433L1063.46 224.535C1063.61 224.535 1063.73 224.658 1063.73 224.809C1063.73 224.958 1063.61 225.081 1063.46 225.081Z" fill="black"/>
<path d="M1082.94 216.848C1082.79 216.846 1082.67 216.723 1082.67 216.572L1082.84 194.887L1051.79 194.781C1051.64 194.781 1051.52 194.658 1051.52 194.507C1051.52 194.355 1051.64 194.234 1051.79 194.234L1083.39 194.342L1083.22 216.576C1083.22 216.727 1083.1 216.848 1082.94 216.848Z" fill="black"/>
<path d="M1060.06 206.941C1059.98 206.941 1059.91 206.91 1059.85 206.852L1057.71 204.49C1057.61 204.378 1057.61 204.205 1057.72 204.103C1057.84 204.002 1058.01 204.011 1058.11 204.121L1060.26 206.483C1060.36 206.595 1060.35 206.768 1060.24 206.869C1060.19 206.919 1060.12 206.941 1060.06 206.941Z" fill="black"/>
<path d="M1059.81 208.903C1059.74 208.903 1059.67 208.877 1059.61 208.823L1057.47 206.664C1057.36 206.556 1057.36 206.383 1057.47 206.278C1057.57 206.172 1057.75 206.172 1057.85 206.278L1060 208.437C1060.11 208.545 1060.11 208.717 1060 208.823C1059.95 208.877 1059.88 208.903 1059.81 208.903Z" fill="black"/>
<path d="M1046.15 255.679C1042.94 256.106 1044.34 253.949 1044.34 253.949C1042.59 254.001 1042.32 253.401 1042.4 252.892C1042.46 252.518 1042.71 252.201 1043.04 252.026C1044.1 251.469 1047.34 249.776 1049.44 248.837C1050.33 247.652 1048.14 246.369 1046.74 246.03C1046.02 245.855 1045.18 245.158 1047.06 244.666C1048.6 244.264 1052.12 244.711 1052.12 244.711L1056.93 237.97L1064.7 246.36C1064.7 246.36 1058.42 253.375 1057.48 254.437C1056.54 255.502 1052.2 258.021 1050.32 258.285C1046.9 258.76 1047.89 257.449 1047.89 257.449C1044.29 257.609 1046.15 255.679 1046.15 255.679Z" fill="#FE9F73"/>
<path d="M1047.71 252.935C1047.76 252.885 1047.78 252.805 1047.74 252.736C1047.7 252.652 1047.6 252.617 1047.51 252.66C1046.33 253.25 1044.32 253.777 1044.3 253.783C1044.21 253.807 1044.15 253.9 1044.17 253.99C1044.2 254.081 1044.29 254.137 1044.38 254.114C1044.47 254.092 1046.45 253.572 1047.67 252.967C1047.69 252.958 1047.7 252.948 1047.71 252.935Z" fill="#F07162"/>
<path d="M1049.22 254.476C1049.28 254.42 1049.29 254.33 1049.25 254.261C1049.19 254.183 1049.09 254.161 1049.01 254.215C1047.67 255.111 1046.12 255.511 1046.11 255.515C1046.02 255.539 1045.96 255.631 1045.99 255.722C1046.01 255.813 1046.1 255.869 1046.19 255.845C1046.26 255.828 1047.81 255.429 1049.2 254.498C1049.21 254.492 1049.22 254.483 1049.22 254.476Z" fill="#F07162"/>
<path d="M1050.68 256.499C1050.74 256.443 1050.75 256.357 1050.7 256.286C1050.65 256.206 1050.55 256.182 1050.47 256.232C1049.3 256.972 1047.87 257.274 1047.85 257.279C1047.76 257.298 1047.7 257.389 1047.72 257.48C1047.74 257.572 1047.83 257.631 1047.92 257.611C1047.98 257.598 1049.42 257.292 1050.65 256.519C1050.66 256.517 1050.67 256.508 1050.68 256.499Z" fill="#F07162"/>
<path d="M1050.15 160.739C1050.15 160.739 1063.54 159.517 1070.22 170.591C1076.32 180.708 1087.98 194.923 1089.44 208.92C1090.62 220.234 1069.39 242.787 1063.85 248.178L1054.03 237.711C1054.03 237.711 1069.65 212.925 1070.87 209.868C1071.98 207.087 1049.12 176.928 1049.12 176.928L1050.15 160.739Z" fill="#4C222E"/>
<path d="M1063.61 247.926L1061.5 250.281C1061.5 250.281 1053.63 243.5 1053.07 242.606C1053.2 242.47 1055.43 239.208 1055.43 239.208L1063.61 247.926Z" fill="#E2F2F1"/>
<path d="M1082.8 190.72C1082.85 190.72 1082.9 190.704 1082.95 190.676C1083.07 190.594 1083.11 190.424 1083.03 190.296L1068.29 167.501C1060.75 159.441 1051.53 160.51 1051.44 160.523C1051.29 160.543 1051.18 160.679 1051.2 160.83C1051.22 160.979 1051.36 161.085 1051.51 161.067C1051.6 161.056 1060.54 160.031 1067.87 167.86L1082.57 190.597C1082.62 190.674 1082.71 190.72 1082.8 190.72Z" fill="black"/>
<path d="M1076.21 211.855C1076.36 211.855 1076.49 211.731 1076.49 211.58C1076.49 211.429 1076.36 211.306 1076.21 211.306C1074.54 211.306 1071.68 209.654 1071.11 209.318C1070.21 205.606 1057.34 187.479 1056.79 186.699C1056.7 186.576 1056.53 186.546 1056.41 186.635C1056.28 186.723 1056.25 186.894 1056.34 187.017C1056.48 187.209 1069.99 206.25 1070.6 209.54L1070.62 209.659L1070.73 209.724C1070.87 209.812 1074.21 211.855 1076.21 211.855Z" fill="black"/>
<path d="M1063.84 248.452C1063.91 248.452 1063.97 248.431 1064.02 248.386C1064.14 248.286 1064.15 248.113 1064.05 247.999C1061.81 245.43 1055.44 238.786 1054.38 237.679C1059.84 229.291 1071.14 210.034 1071.14 209.492C1071.14 209.341 1071.02 209.218 1070.87 209.218C1070.74 209.218 1070.63 209.313 1070.6 209.438C1070.28 210.287 1059.68 228.55 1053.8 237.562L1053.68 237.746L1053.83 237.903C1053.91 237.981 1061.21 245.579 1063.64 248.362C1063.69 248.42 1063.77 248.452 1063.84 248.452Z" fill="black"/>
<path d="M1078.51 374.379H1082.22L1075.52 280.087H1068.09L1078.51 374.379Z" fill="#FEC786"/>
<path d="M920.42 374.379H916.707L923.406 280.087H930.833L920.42 374.379Z" fill="#FEC786"/>
<path d="M898.482 267.817C898.545 267.215 898.102 266.673 897.504 266.571L893.786 265.934C893.67 265.915 893.579 265.822 893.56 265.706C893.532 265.533 893.668 265.38 893.843 265.386L899.41 265.591C900.047 265.615 900.488 265.118 900.386 264.488C900.285 263.857 899.68 263.322 899.041 263.298L893.363 263.089C893.232 263.085 893.122 262.987 893.1 262.856L893.085 262.763C893.061 262.612 893.163 262.469 893.314 262.445L899.536 261.446C900.134 261.349 900.585 260.813 900.526 260.211C900.464 259.55 899.857 259.088 899.212 259.192L892.951 260.198C892.8 260.222 892.657 260.12 892.634 259.969L892.586 259.675C892.565 259.539 892.647 259.406 892.78 259.367L898.426 257.683C899.007 257.51 899.384 256.92 899.248 256.329C899.099 255.681 898.439 255.303 897.813 255.489C897.813 255.489 889.065 257.594 887.672 257.81L889.069 254.831C889.438 254.321 889.324 253.609 888.815 253.241C888.305 252.872 887.593 252.987 887.226 253.496L882.269 258.896C882.029 259.228 882.157 260.038 882.416 260.666C882.973 267.362 883.113 268.387 883.43 270.179L890.477 268.802C892.511 268.404 894.598 268.381 896.64 268.73L897.154 268.819C897.8 268.931 898.411 268.478 898.482 267.817Z" fill="#FE9F73"/>
<path d="M858.383 258.969L883.541 255.331C883.541 255.331 887.081 266.306 886.35 272.412C886.35 272.412 862.975 278.722 858.072 278.099C853.17 277.475 848.172 270.458 848.172 270.458C848.172 270.458 847.395 233.888 848.126 234.453C848.86 235.017 858.383 258.969 858.383 258.969Z" fill="#EF3A4C"/>
<path d="M904.944 369.506L885.997 367.967L885.803 363.983L885.617 349.934L905.181 351.921L904.944 369.506Z" fill="#FE9F73"/>
<path d="M853.838 270.635C853.838 270.635 894.706 275.762 900.419 283.086C903.236 286.698 908.975 335.141 906.593 355.293C906.593 355.293 891.995 356.297 885.013 354.607L883.314 305.469L851.932 295.978L835.82 271.222L853.838 270.635Z" fill="#258D8C"/>
<path d="M895.013 355.848C889.087 355.848 884.993 354.876 884.952 354.866L884.754 354.818L883.035 305.132L885.229 306.898L884.892 307.315L883.609 306.283L885.274 354.389C886.183 354.585 890.138 355.367 895.531 355.308L895.535 355.844C895.36 355.848 895.185 355.848 895.013 355.848Z" fill="#21111D"/>
<path d="M891.596 374.379L917.466 374.373C917.699 374.336 917.891 374.295 918.029 374.25C919.69 373.721 919.828 372.751 919.75 372.19C919.716 371.942 919.571 371.721 919.357 371.583L905.065 362.329L900.344 364.419C898.841 365.089 897.239 365.514 895.599 365.672C892.248 365.993 886.872 366.168 885.804 364.087L885.972 372.075C885.974 372.073 885.193 374.442 891.596 374.379Z" fill="#EF3A4C"/>
<path d="M850.481 370.54H834.678V316.478H831.168V370.54H815.775C813.627 370.54 811.885 372.283 811.885 374.429H831.168H834.678H854.37C854.37 372.283 852.63 370.54 850.481 370.54Z" fill="#4C222E"/>
<path d="M787.222 232.821H823.543L842.757 316.478L801.136 312.138L787.222 232.821Z" fill="#FEC786"/>
<path d="M870.419 307.956C870.419 307.956 822.686 307.956 808.441 307.956C806.142 307.956 804.171 306.315 803.754 304.055L791.088 235.481C790.747 233.639 788.947 232.435 787.103 232.845C785.346 233.233 784.249 234.995 784.575 236.766L798.923 314.45C799.035 315.053 799.303 315.584 799.678 316.016C800.602 317.73 802.414 318.898 804.497 318.898H870.419C873.439 318.898 875.89 316.45 875.89 313.427C875.89 310.406 873.439 307.956 870.419 307.956Z" fill="#F99247"/>
<path d="M808.441 308.224C806.015 308.224 803.933 306.492 803.491 304.104L790.825 235.531C790.674 234.708 790.205 234.002 789.508 233.54C788.81 233.078 787.977 232.925 787.159 233.106C787.016 233.138 786.872 233.048 786.842 232.903C786.809 232.758 786.9 232.616 787.044 232.586C788.005 232.372 788.985 232.553 789.804 233.095C790.622 233.637 791.172 234.468 791.349 235.433L804.015 304.007C804.411 306.14 806.272 307.69 808.441 307.69C808.588 307.69 808.709 307.809 808.709 307.958C808.707 308.105 808.588 308.224 808.441 308.224Z" fill="#21111D"/>
<path d="M854.383 308.479C854.383 308.479 838.72 308.735 827.742 308.36C824.219 308.239 821.082 308.487 819.225 308.075C811.585 306.378 809.702 282.527 818.379 267.912C827.055 253.297 857.412 298.167 857.412 298.167L854.383 308.479Z" fill="#7FC6A6"/>
<path d="M882.578 369.772L866.42 368.902C864.672 368.807 863.288 367.384 863.245 365.633L862.85 349.725L882.416 351.711L882.578 369.772Z" fill="#FE9F73"/>
<path d="M841.244 275.762C841.244 275.762 883.211 280.739 884.32 285.182C885.43 289.626 887.82 335.248 885.439 355.401C885.439 355.401 869.741 356.299 862.759 354.609L860.879 308.256L854.109 308.491L837.69 279.605L841.244 275.762Z" fill="#7FC6A6"/>
<path d="M872.178 355.947C865.242 355.947 862.77 354.902 862.651 354.851L862.498 354.784L860.676 308.157L863.543 309.508L863.314 309.992L861.246 309.016L863.018 354.414C863.767 354.674 867.366 355.712 875.861 355.319L875.885 355.855C874.529 355.919 873.297 355.947 872.178 355.947Z" fill="#21111D"/>
<path d="M865.674 345.893C864.933 343.036 864.722 315.185 864.713 314.001L865.248 313.997C865.25 314.286 865.469 342.967 866.192 345.759L865.674 345.893Z" fill="#21111D"/>
<path d="M842.597 308.977C835.762 308.977 827.569 308.746 818.357 308.053L818.398 307.522C845.842 309.59 864.249 307.544 864.43 307.522L864.491 308.051C864.37 308.066 856.166 308.977 842.597 308.977Z" fill="#21111D"/>
<path d="M869.022 374.379L894.892 374.373C895.125 374.336 895.317 374.295 895.455 374.25C897.115 373.721 897.253 372.751 897.176 372.19C897.141 371.942 896.997 371.721 896.783 371.583L882.491 362.329L877.769 364.419C876.267 365.089 874.665 365.514 873.024 365.672C869.674 365.993 864.246 366.166 863.18 364.085L863.398 372.073C863.398 372.073 862.616 374.442 869.022 374.379Z" fill="#FF424D"/>
<path d="M825.047 292.64C825.047 292.64 834.961 287.918 844.18 280.959C853.398 274.003 858.966 269.607 858.966 269.607C858.966 269.607 857.683 266.774 856.449 264.404L854.279 260.232L848.977 237.087C848.977 237.087 847.319 225.955 832.308 223.306C832.882 223.572 831.082 223.099 831.082 223.099C831.082 223.099 817.489 223.591 812.34 224.304C804.335 225.411 803.515 246.101 803.515 246.101C803.512 259.842 805.138 278.649 809.914 284.774C815.98 292.555 822.975 292.804 825.056 292.685C825.05 292.655 825.047 292.64 825.047 292.64Z" fill="#EF3A4C"/>
<path d="M821.112 222.669C821.112 222.669 812.049 222.352 807.722 224.802C801.265 228.46 803.567 249.409 803.567 249.409C803.567 249.409 809.052 246.417 809.385 245.419C809.717 244.422 821.112 222.669 821.112 222.669Z" fill="#EF3A4C"/>
<path d="M818.786 291.884C819.371 292.106 819.924 292.277 820.431 292.413C823.484 293.223 825.617 292.886 825.706 292.871C825.842 292.849 825.932 292.72 825.911 292.584C825.889 292.448 825.76 292.357 825.624 292.378C825.602 292.383 823.486 292.713 820.531 291.923C817.804 291.195 813.782 289.336 810.105 284.619C805.488 278.697 803.801 260.463 803.76 246.65C803.76 246.512 803.648 246.399 803.51 246.401C803.372 246.401 803.262 246.514 803.262 246.652C803.303 260.545 805.017 278.906 809.712 284.928C812.804 288.889 816.14 290.882 818.786 291.884Z" fill="#21111D"/>
<path d="M826.198 269.072C826.244 269.089 826.293 269.093 826.343 269.08C826.477 269.048 826.561 268.914 826.529 268.78C826.488 268.603 822.36 251.059 820.605 240.019C820.583 239.883 820.454 239.79 820.32 239.812C820.184 239.834 820.091 239.961 820.112 240.097C821.872 251.156 826.002 268.72 826.045 268.894C826.065 268.981 826.125 269.043 826.198 269.072Z" fill="#21111D"/>
<path d="M826.261 232.525C826.453 232.545 826.65 232.562 826.85 232.577C826.965 232.586 827.064 232.499 827.071 232.385C827.079 232.271 826.997 232.173 826.878 232.165C818.29 231.562 816.695 225.273 816.682 225.21C816.66 225.1 816.555 225.023 816.444 225.042C816.334 225.061 816.257 225.161 816.274 225.273C816.285 225.336 817.869 231.657 826.261 232.525Z" fill="#21111D"/>
<path d="M832.168 319.209L806.311 319.164C799.346 319.792 798.517 313.831 798.476 313.505L796.939 305.182C796.913 305.037 797.008 304.897 797.153 304.871C797.297 304.845 797.438 304.94 797.463 305.084L799.005 313.438C799.029 313.675 799.672 319.235 806.274 318.633L806.298 318.63L832.166 318.676C832.312 318.676 832.431 318.797 832.431 318.943C832.433 319.09 832.314 319.209 832.168 319.209Z" fill="#21111D"/>
<path d="M801.215 233.087L788.504 233.067C788.357 233.067 788.238 232.946 788.238 232.8C788.238 232.653 788.357 232.534 788.506 232.534L801.215 232.553C801.362 232.553 801.481 232.672 801.481 232.821C801.481 232.968 801.362 233.087 801.215 233.087Z" fill="#21111D"/>
<path d="M848.15 257.86C846.466 252.183 844.649 245.749 844.016 242.427C843.99 242.291 843.858 242.202 843.725 242.228C843.589 242.254 843.5 242.383 843.526 242.519C844.165 245.875 846.002 252.371 847.695 258.08C847.848 258.006 848.001 257.933 848.15 257.86Z" fill="#21111D"/>
<path d="M843.439 281.693C843.368 281.693 843.299 281.659 843.256 281.596C843.189 281.495 843.215 281.359 843.316 281.292C846.187 279.377 857.414 270.551 858.707 269.531C856.937 264.244 851.945 257.732 851.14 256.702L826.855 268.918L823.646 271.252C823.549 271.323 823.411 271.302 823.34 271.205C823.269 271.108 823.29 270.969 823.387 270.898L826.641 268.536L851.261 256.152L851.373 256.29C851.431 256.363 857.28 263.713 859.173 269.544L859.221 269.691L859.1 269.786C858.975 269.885 846.606 279.629 843.56 281.661C843.523 281.683 843.482 281.693 843.439 281.693Z" fill="#21111D"/>
<path d="M886.004 267.485C885.881 267.485 885.775 267.39 885.764 267.264C885.322 262.316 883.73 256.771 883.402 255.668L858.227 259.181L853.754 248.112C849.559 236.217 846.069 231.325 846.034 231.277C840.464 224.178 831.155 223.347 831.06 223.339C830.926 223.328 830.829 223.211 830.84 223.077C830.85 222.943 830.967 222.844 831.101 222.857C831.196 222.866 840.717 223.716 846.42 230.986C846.461 231.042 849.987 235.978 854.205 247.941L858.534 258.65L883.746 255.131L883.806 255.327C883.825 255.39 885.751 261.668 886.246 267.219C886.256 267.353 886.159 267.47 886.028 267.48C886.019 267.485 886.012 267.485 886.004 267.485Z" fill="#21111D"/>
<path d="M833.13 204.393L833.411 215.246C833.411 215.246 833.646 218.731 830.607 219.247L831.298 223.887C831.554 225.612 830.564 227.296 828.914 227.864C828.109 228.142 827.144 228.356 826.043 228.384C822.554 228.475 820.596 225.908 820.272 224.606C819.948 223.304 820.659 217.032 820.659 217.032L820.473 213.964L820.561 202.052L833.13 204.393Z" fill="#FE9F73"/>
<path d="M823.454 216.466C823.454 216.466 823.81 222.3 831.118 222.669L830.609 219.247C830.607 219.247 825.902 220.32 823.454 216.466Z" fill="#F07162"/>
<path d="M824.856 210.304C824.819 210.304 824.783 210.294 824.755 210.265C824.696 210.212 824.692 210.119 824.746 210.06C824.765 210.039 826.713 207.942 828.578 209.367C828.643 209.417 828.653 209.508 828.606 209.57C828.556 209.635 828.466 209.646 828.403 209.598C826.749 208.335 825.035 210.177 824.964 210.257C824.932 210.287 824.895 210.302 824.856 210.304Z" fill="black"/>
<path d="M819.806 208.907L822.96 209.48L823.543 210.052C823.543 210.052 823.135 204.799 822.517 203.78C821.9 202.763 819.806 208.907 819.806 208.907Z" fill="black"/>
<path d="M830.826 209.277C830.785 209.277 830.744 209.262 830.714 209.229C830.66 209.171 830.664 209.078 830.722 209.024C830.781 208.972 832.136 207.75 833.032 208.478C833.095 208.527 833.104 208.62 833.054 208.683C833.004 208.746 832.911 208.754 832.849 208.705C832.147 208.135 830.932 209.227 830.919 209.24C830.895 209.262 830.861 209.274 830.826 209.277Z" fill="black"/>
<path d="M827.812 210.814C827.818 211.056 827.628 211.254 827.387 211.261C827.145 211.267 826.946 211.077 826.94 210.835C826.933 210.594 827.123 210.395 827.365 210.388C827.605 210.384 827.805 210.574 827.812 210.814Z" fill="black"/>
<path d="M832.435 210.259C832.441 210.501 832.251 210.699 832.01 210.706C831.768 210.712 831.569 210.522 831.563 210.281C831.556 210.039 831.746 209.84 831.988 209.834C832.228 209.827 832.428 210.017 832.435 210.259Z" fill="black"/>
<path d="M823.413 212.697C824.443 211.684 824.458 210.027 823.445 208.996C822.433 207.965 820.776 207.951 819.745 208.964C818.715 209.976 818.7 211.633 819.713 212.664C820.725 213.695 822.382 213.71 823.413 212.697Z" fill="#FE9F73"/>
<path d="M821.169 212.289C820.625 212.304 820.251 211.904 820.122 211.498C819.969 211.019 820.118 210.546 820.504 210.291C821.074 209.916 821.605 210.134 821.879 210.304C821.758 210.011 821.575 209.799 821.335 209.674C820.813 209.404 820.178 209.626 820.172 209.629C820.135 209.642 820.092 209.622 820.079 209.585C820.066 209.549 820.085 209.506 820.122 209.493C820.15 209.482 820.821 209.246 821.4 209.544C821.735 209.717 821.968 210.032 822.093 210.481L822.162 210.732L821.972 210.553C821.946 210.527 821.307 209.937 820.584 210.415C820.182 210.678 820.159 211.14 820.26 211.455C820.366 211.783 820.666 212.157 821.165 212.144C821.169 212.144 821.173 212.144 821.18 212.144C821.219 212.144 821.253 212.174 821.255 212.213C821.257 212.254 821.225 212.286 821.186 212.289C821.18 212.289 821.173 212.289 821.169 212.289Z" fill="#F07162"/>
<path d="M829.427 213.716C829.397 213.716 829.366 213.698 829.356 213.668C829.343 213.629 829.362 213.588 829.399 213.575L830.843 213.055L830.295 209.637C830.288 209.598 830.316 209.559 830.355 209.553C830.396 209.546 830.433 209.575 830.439 209.613L831.007 213.15L829.448 213.711C829.442 213.716 829.433 213.716 829.427 213.716Z" fill="#F07162"/>
<path d="M828.334 215.162C828.379 215.151 831.21 215.013 831.21 215.013C831.21 215.013 830.884 216.194 829.832 216.248C828.781 216.302 828.334 215.162 828.334 215.162Z" fill="#FBFDFC"/>
<path d="M819.806 208.907C819.806 208.907 818.792 203.836 820.301 201.895C821.812 199.956 830.679 196.4 831.788 197.32C832.898 198.242 831.842 199.423 831.842 199.423C831.842 199.423 835.407 198.177 836.305 201.344C837.203 204.512 829.504 206.068 824.854 204.695C824.854 204.697 821.827 205.665 819.806 208.907Z" fill="black"/>
<path d="M863.286 262.357L869.58 262.02C870.184 261.988 870.689 261.502 870.696 260.895C870.702 260.23 870.15 259.708 869.498 259.745L863.166 260.083C863.012 260.092 862.883 259.976 862.874 259.822L862.859 259.526C862.853 259.388 862.948 259.265 863.084 259.239L868.876 258.162C869.472 258.052 869.908 257.506 869.837 256.903C869.757 256.243 869.141 255.798 868.498 255.917C868.498 255.917 859.577 257.085 858.168 257.154L859.873 254.338C860.294 253.87 860.255 253.151 859.787 252.73C859.318 252.309 858.6 252.348 858.179 252.816L852.68 257.663C852.632 257.715 852.596 257.784 852.565 257.864C854.236 260.144 857.244 264.52 858.787 268.469L859.793 268.381C861.857 268.199 863.936 268.398 865.931 268.961L866.432 269.104C867.06 269.281 867.716 268.895 867.855 268.245C867.982 267.651 867.598 267.068 867.013 266.902L863.384 265.874C863.269 265.842 863.189 265.74 863.183 265.624C863.174 265.449 863.325 265.311 863.498 265.334L869.012 266.127C869.644 266.217 870.132 265.77 870.098 265.133C870.063 264.497 869.519 263.901 868.887 263.81L863.263 263C863.133 262.981 863.034 262.873 863.025 262.741L863.021 262.648C863.017 262.495 863.135 262.363 863.286 262.357Z" fill="#FE9F73"/>
<path d="M878.77 374.379H875.057L881.756 280.087H889.182L878.77 374.379Z" fill="#FEC786"/>
<path d="M939.262 249.942H907.434L896.335 278.211H928.161L939.262 249.942Z" fill="#4CB7D8"/>
<path d="M896.335 278.211H897.995L909.094 249.942H907.434L896.335 278.211Z" fill="#3AA1C9"/>
<path d="M918.453 263.177C918.013 264.475 918.334 265.76 919.174 266.045C920.014 266.33 921.052 265.509 921.495 264.209C921.935 262.912 921.614 261.627 920.774 261.342C919.934 261.057 918.896 261.878 918.453 263.177Z" fill="#E2F2F1"/>
<path d="M885.812 275.929H897.703V278.211H885.812C885.182 278.211 884.67 277.699 884.67 277.069C884.67 276.44 885.182 275.929 885.812 275.929Z" fill="#3AA1C9"/>
<path d="M888.823 277.071H896.334V276.712H888.823V277.071Z" fill="#4CB7D8"/>
<path d="M877.103 259.63V261.863C873.194 261.863 870.014 265.043 870.014 268.953C870.014 272.861 873.194 276.041 877.103 276.041V276.928C877.103 277.637 877.678 278.209 878.384 278.209H888.252C888.96 278.209 889.532 277.634 889.532 276.928V259.628H877.103V259.63ZM871.762 268.955C871.762 266.01 874.159 263.614 877.103 263.614V274.297C874.159 274.294 871.762 271.9 871.762 268.955Z" fill="#FEBAC7"/>
<path d="M882.533 268.821L882.238 268.997L884.072 272.054L884.366 271.878L882.533 268.821Z" fill="#49263E"/>
<path d="M884.61 269.401L884.312 269.572L886.044 272.579L886.342 272.407L884.61 269.401Z" fill="#49263E"/>
<path d="M1023.94 259.63V276.931C1023.94 277.639 1024.51 278.211 1025.22 278.211H1035.08C1035.79 278.211 1036.36 277.637 1036.36 276.931V276.043C1040.27 276.043 1043.45 272.863 1043.45 268.955C1043.45 265.045 1040.27 261.865 1036.36 261.865V259.632H1023.94V259.63ZM1036.37 274.294V263.611C1039.31 263.611 1041.71 266.008 1041.71 268.953C1041.71 271.9 1039.31 274.294 1036.37 274.294Z" fill="#FECC86"/>
<path d="M1030.95 268.846L1029.12 271.902L1029.42 272.079L1031.25 269.022L1030.95 268.846Z" fill="#49263E"/>
<path d="M1028.85 269.415L1027.11 272.421L1027.41 272.592L1029.14 269.586L1028.85 269.415Z" fill="#49263E"/>
<path d="M1089.73 246.164C1089.83 245.564 1090.4 245.156 1091 245.21L1094.76 245.544C1094.88 245.555 1094.99 245.488 1095.03 245.38C1095.11 245.221 1095.01 245.037 1094.84 244.998L1089.41 243.772C1088.79 243.631 1088.49 243.04 1088.75 242.455C1089.01 241.872 1089.73 241.509 1090.35 241.649L1095.89 242.9C1096.02 242.928 1096.15 242.863 1096.21 242.742L1096.25 242.656C1096.31 242.515 1096.25 242.353 1096.11 242.291L1090.35 239.732C1089.79 239.486 1089.49 238.854 1089.7 238.284C1089.94 237.66 1090.64 237.37 1091.23 237.636L1097.03 240.209C1097.17 240.272 1097.33 240.209 1097.39 240.069L1097.52 239.799C1097.57 239.672 1097.53 239.523 1097.41 239.452L1092.38 236.379C1091.86 236.064 1091.65 235.397 1091.93 234.859C1092.24 234.272 1092.97 234.076 1093.53 234.415C1093.53 234.415 1101.45 238.687 1102.74 239.253L1102.15 236.014C1101.93 235.427 1102.22 234.769 1102.81 234.544C1103.39 234.317 1104.05 234.611 1104.28 235.198L1107.69 241.686C1107.83 242.068 1107.5 242.82 1107.09 243.359C1104.84 249.69 1104.44 250.646 1103.68 252.296L1097.22 249.161C1095.35 248.256 1093.34 247.699 1091.28 247.513L1090.76 247.468C1090.11 247.416 1089.63 246.82 1089.73 246.164Z" fill="#FE9F73"/>
<path d="M1108.47 240.607L1135.01 263.223L1131.99 278.224L1124.43 277.103L1099 251.378C1099 251.378 1102.18 243.463 1108.47 240.607Z" fill="#FD7583"/>
<path d="M1130.55 259.656C1130.49 259.656 1130.44 259.637 1130.39 259.598L1108.44 240.89C1103.72 243.172 1100.91 248.232 1100.88 248.284C1100.81 248.401 1100.67 248.444 1100.55 248.379C1100.43 248.314 1100.39 248.168 1100.45 248.051C1100.48 247.997 1103.42 242.701 1108.37 240.384L1108.51 240.317L1130.7 259.226C1130.8 259.313 1130.82 259.466 1130.73 259.567C1130.68 259.628 1130.61 259.656 1130.55 259.656Z" fill="#21111D"/>
<path d="M1139.84 202.631C1139.84 202.631 1137.66 197.916 1143.01 193.844C1148.37 189.772 1149.37 196.512 1151.49 197.104C1153.6 197.696 1157.39 196.873 1158.86 200.781C1160.33 204.689 1159.26 207.85 1160.88 209.48C1163.59 212.202 1170.24 218.12 1166.11 228.956C1163.4 236.071 1154.45 244.392 1154.45 244.392C1154.45 244.392 1132.45 230.323 1130.46 223.013C1128.46 215.702 1131.15 212.494 1134.7 209.974C1136.88 208.422 1141.28 207.105 1139.84 202.631Z" fill="#4C222E"/>
<path d="M1142.79 204.89C1142.79 204.89 1140.54 214.951 1142.08 217.33C1142.08 217.33 1142.83 218.591 1144.83 218.772L1144.37 225.137L1153.35 225.787L1154.86 204.905L1142.79 204.89Z" fill="#FE9F73"/>
<path d="M1145.14 213.087C1145.18 213.09 1145.22 213.066 1145.23 213.029C1145.24 212.986 1145.22 212.941 1145.17 212.928C1144.65 212.777 1144.37 212.103 1144.29 211.885C1145.06 211.539 1145.56 211.054 1145.76 210.438C1146.08 209.437 1145.5 208.465 1145.48 208.426C1145.45 208.387 1145.4 208.374 1145.36 208.398C1145.32 208.422 1145.31 208.471 1145.33 208.51C1145.34 208.519 1145.9 209.458 1145.6 210.389C1145.41 210.974 1144.92 211.438 1144.15 211.764L1144.09 211.792L1144.11 211.863C1144.12 211.904 1144.42 212.88 1145.13 213.085C1145.13 213.087 1145.14 213.087 1145.14 213.087Z" fill="#F07162"/>
<path d="M1144.65 221.333L1144.83 218.772C1144.83 218.772 1149.18 218.831 1151.95 217.349C1151.95 217.349 1148.1 220.553 1144.65 221.333Z" fill="#F07162"/>
<path d="M1150.47 209.136C1150.51 209.138 1150.55 209.128 1150.59 209.1C1150.66 209.041 1150.67 208.938 1150.61 208.869C1150.59 208.845 1148.65 206.548 1146.62 207.955C1146.54 208.007 1146.52 208.109 1146.58 208.184C1146.63 208.258 1146.73 208.277 1146.8 208.225C1148.59 206.992 1150.29 208.994 1150.36 209.078C1150.39 209.113 1150.43 209.134 1150.47 209.136Z" fill="#4C222E"/>
<path d="M1144.81 208.368C1144.85 208.372 1144.9 208.355 1144.93 208.32C1145 208.256 1145 208.152 1144.93 208.089C1144.88 208.031 1143.51 206.679 1142.53 207.405C1142.46 207.459 1142.44 207.562 1142.5 207.634C1142.55 207.707 1142.65 207.722 1142.72 207.668C1143.48 207.111 1144.69 208.307 1144.7 208.32C1144.73 208.348 1144.77 208.366 1144.81 208.368Z" fill="#4C222E"/>
<path d="M1142.84 209.501C1142.83 209.754 1143.01 209.972 1143.27 209.989C1143.52 210.007 1143.74 209.819 1143.75 209.566C1143.77 209.313 1143.58 209.095 1143.33 209.078C1143.08 209.061 1142.86 209.249 1142.84 209.501Z" fill="black"/>
<path d="M1147.89 210.249C1148.14 210.204 1148.31 209.966 1148.26 209.717C1148.22 209.469 1147.98 209.303 1147.73 209.348C1147.48 209.393 1147.31 209.631 1147.36 209.88C1147.4 210.129 1147.64 210.294 1147.89 210.249Z" fill="black"/>
<path d="M1157.44 213.408C1158.02 212.119 1157.45 210.6 1156.16 210.017C1154.87 209.434 1153.35 210.006 1152.77 211.296C1152.18 212.585 1152.76 214.103 1154.04 214.687C1155.33 215.27 1156.85 214.698 1157.44 213.408Z" fill="#FE9F73"/>
<path d="M1155.17 213.94C1155.71 213.979 1156.09 213.601 1156.24 213.208C1156.41 212.742 1156.29 212.267 1155.92 211.999C1155.39 211.617 1154.87 211.781 1154.59 211.932C1154.72 211.669 1154.9 211.481 1155.13 211.375C1155.65 211.138 1156.26 211.382 1156.26 211.384C1156.3 211.401 1156.35 211.382 1156.37 211.339C1156.39 211.298 1156.37 211.248 1156.32 211.231C1156.3 211.22 1155.65 210.954 1155.06 211.224C1154.72 211.38 1154.48 211.68 1154.34 212.114L1154.24 212.392L1154.47 212.2C1154.49 212.176 1155.14 211.634 1155.82 212.127C1156.19 212.399 1156.2 212.846 1156.08 213.146C1155.97 213.461 1155.66 213.813 1155.17 213.772C1155.12 213.768 1155.08 213.802 1155.08 213.847C1155.07 213.893 1155.11 213.932 1155.15 213.936C1155.16 213.938 1155.16 213.938 1155.17 213.94Z" fill="#F07162"/>
<path d="M1142.79 204.889C1142.79 204.889 1143.85 201.012 1149.14 200.96C1154.44 200.908 1154.86 204.905 1154.86 204.905L1148.77 205.688L1143.18 204.889H1142.79Z" fill="#FE9F73"/>
<path d="M1143.03 201.558C1143.03 201.558 1146.07 205 1150.37 204.581C1150.37 204.581 1151.41 209.873 1154.5 209.855C1157.59 209.838 1156.44 202.53 1156.44 202.53C1156.44 202.53 1150.87 199.773 1150.5 199.747C1150.14 199.721 1144.07 198.915 1144.07 198.915L1143.03 201.558Z" fill="#4C222E"/>
<path d="M1144.25 214.163C1144.3 214.148 1147.36 213.759 1147.36 213.759C1147.36 213.759 1147.1 215.065 1145.97 215.214C1144.83 215.361 1144.25 214.163 1144.25 214.163Z" fill="#FBFDFC"/>
<path d="M1138.02 370.54H1153.82V316.478H1157.33V370.54H1172.72C1174.87 370.54 1176.61 372.283 1176.61 374.429H1157.33H1153.82H1134.13C1134.13 372.283 1135.87 370.54 1138.02 370.54Z" fill="#4C222E"/>
<path d="M1201.28 232.821H1164.96L1145.74 316.478L1187.36 312.138L1201.28 232.821Z" fill="#FEC786"/>
<path d="M1118.08 307.957C1118.08 307.957 1165.81 307.957 1180.06 307.957C1182.36 307.957 1184.33 306.316 1184.74 304.055L1197.41 235.482C1197.75 233.64 1199.55 232.435 1201.4 232.846C1203.15 233.234 1204.25 234.996 1203.92 236.766L1189.58 314.451C1189.46 315.053 1189.2 315.585 1188.82 316.016C1187.9 317.731 1186.09 318.899 1184 318.899H1118.08C1115.06 318.899 1112.61 316.45 1112.61 313.428C1112.61 310.407 1115.06 307.957 1118.08 307.957Z" fill="#F99247"/>
<path d="M1180.06 308.224C1182.48 308.224 1184.57 306.492 1185.01 304.104L1197.67 235.531C1197.83 234.708 1198.29 234.002 1198.99 233.54C1199.69 233.078 1200.52 232.925 1201.34 233.106C1201.48 233.139 1201.63 233.048 1201.66 232.903C1201.69 232.759 1201.6 232.616 1201.45 232.586C1200.49 232.372 1199.51 232.553 1198.7 233.095C1197.88 233.637 1197.33 234.469 1197.15 235.434L1184.48 304.007C1184.09 306.14 1182.23 307.691 1180.06 307.691C1179.91 307.691 1179.79 307.809 1179.79 307.958C1179.79 308.105 1179.91 308.224 1180.06 308.224Z" fill="#21111D"/>
<path d="M1187.28 233.087C1187.28 233.087 1187.29 233.087 1187.28 233.087L1199.99 233.067C1200.14 233.067 1200.26 232.946 1200.26 232.8C1200.26 232.653 1200.14 232.534 1199.99 232.534L1187.28 232.553C1187.14 232.553 1187.02 232.672 1187.02 232.821C1187.02 232.968 1187.14 233.087 1187.28 233.087Z" fill="#21111D"/>
<path d="M1083.55 369.506L1102.5 367.967L1102.7 363.983L1102.88 349.934L1083.32 351.921L1083.55 369.506Z" fill="#FE9F73"/>
<path d="M1134.66 270.635C1134.66 270.635 1093.79 275.763 1088.08 283.086C1085.26 286.698 1079.52 335.141 1081.91 355.293C1081.91 355.293 1096.5 356.297 1103.49 354.607L1105.19 305.469L1136.57 295.978L1152.68 271.222L1134.66 270.635Z" fill="#3AA1C9"/>
<path d="M1093.49 355.848C1099.41 355.848 1103.51 354.877 1103.55 354.866L1103.75 354.818L1105.46 305.132L1103.27 306.898L1103.61 307.315L1104.89 306.283L1103.22 354.389C1102.32 354.585 1098.36 355.367 1092.97 355.308L1092.96 355.844C1093.14 355.848 1093.31 355.848 1093.49 355.848Z" fill="#21111D"/>
<path d="M1096.9 374.379L1071.03 374.373C1070.8 374.336 1070.61 374.295 1070.47 374.25C1068.81 373.721 1068.67 372.751 1068.75 372.19C1068.78 371.942 1068.93 371.722 1069.14 371.583L1083.43 362.33L1088.16 364.42C1089.66 365.089 1091.26 365.514 1092.9 365.672C1096.25 365.994 1101.63 366.168 1102.7 364.087L1102.53 372.076C1102.53 372.073 1103.31 374.442 1096.9 374.379Z" fill="#CE1D37"/>
<path d="M1134.12 308.479C1134.12 308.479 1149.78 308.736 1160.76 308.36C1164.28 308.239 1167.42 308.487 1169.27 308.075C1176.91 306.378 1178.8 282.527 1170.12 267.912C1161.44 253.298 1131.09 298.167 1131.09 298.167L1134.12 308.479Z" fill="#4CB7D8"/>
<path d="M1105.92 369.772L1122.08 368.902C1123.83 368.807 1125.21 367.384 1125.25 365.633L1125.65 349.725L1106.08 351.711L1105.92 369.772Z" fill="#FE9F73"/>
<path d="M1147.26 275.762C1147.26 275.762 1105.29 280.739 1104.18 285.182C1103.07 289.626 1100.68 335.249 1103.06 355.401C1103.06 355.401 1118.76 356.299 1125.74 354.609L1127.62 308.256L1134.39 308.491L1150.81 279.606L1147.26 275.762Z" fill="#4CB7D8"/>
<path d="M1116.32 355.947C1123.26 355.947 1125.73 354.902 1125.85 354.851L1126 354.784L1127.82 308.157L1124.96 309.508L1125.19 309.992L1127.25 309.016L1125.48 354.414C1124.73 354.674 1121.13 355.712 1112.64 355.319L1112.61 355.855C1113.97 355.919 1115.2 355.947 1116.32 355.947Z" fill="#21111D"/>
<path d="M1124.3 345.521C1125.04 342.665 1123.78 315.185 1123.79 314.001L1123.25 313.997C1123.25 314.286 1124.51 342.596 1123.79 345.387L1124.3 345.521Z" fill="#21111D"/>
<path d="M1145.9 308.977C1152.74 308.977 1160.93 308.746 1170.14 308.053L1170.1 307.522C1142.66 309.59 1124.25 307.544 1124.07 307.522L1124.01 308.051C1124.13 308.066 1132.33 308.977 1145.9 308.977Z" fill="#21111D"/>
<path d="M1119.48 374.379L1093.61 374.373C1093.38 374.336 1093.18 374.295 1093.05 374.25C1091.39 373.721 1091.25 372.751 1091.33 372.19C1091.36 371.942 1091.5 371.722 1091.72 371.583L1106.01 362.33L1110.73 364.42C1112.23 365.089 1113.84 365.514 1115.48 365.672C1118.83 365.994 1124.25 366.166 1125.32 364.085L1125.1 372.073C1125.1 372.073 1125.88 374.442 1119.48 374.379Z" fill="#EF3A4C"/>
<path d="M1156.33 319.209L1182.19 319.164C1189.15 319.792 1189.98 313.831 1190.02 313.505L1191.56 305.182C1191.59 305.037 1191.49 304.897 1191.35 304.871C1191.2 304.845 1191.06 304.94 1191.04 305.085L1189.49 313.438C1189.47 313.675 1188.83 319.235 1182.23 318.633L1182.2 318.63L1156.33 318.676C1156.19 318.676 1156.07 318.797 1156.07 318.944C1156.07 319.09 1156.18 319.209 1156.33 319.209Z" fill="#21111D"/>
<path d="M1128.99 239.21C1128.49 239.903 1126.42 261.852 1126.11 265.198L1126.89 266.414L1136.49 278.209C1138.35 275.389 1139.11 273.763 1139.11 273.763C1139.11 273.763 1129.54 238.458 1128.99 239.21Z" fill="#FD7583"/>
<path d="M1167.56 288.516C1167.56 288.516 1156.71 286.784 1145.9 282.712C1135.1 278.641 1128.52 275.996 1128.52 275.996C1128.52 275.996 1128.95 272.917 1129.46 270.294L1130.37 265.68L1128.92 241.978C1128.92 241.978 1127.37 230.831 1141.02 224.051C1140.55 224.468 1142.14 223.507 1142.14 223.507C1142.14 223.507 1155.87 220.009 1160.92 221.238C1170.27 223.507 1175.08 237.793 1175.08 237.793C1178.96 250.974 1182.71 269.475 1179.85 276.7C1176.23 285.876 1169.59 288.089 1167.56 288.561C1167.56 288.531 1167.56 288.516 1167.56 288.516Z" fill="#FD7583"/>
<path d="M1126.96 256.603C1126.96 256.603 1126.95 256.603 1126.94 256.601C1126.81 256.588 1126.71 256.469 1126.72 256.338L1126.97 253.855C1127.64 241.2 1129.63 235.468 1129.65 235.412C1133.07 226.819 1141.96 223.315 1142.05 223.28C1142.18 223.233 1142.32 223.295 1142.37 223.418C1142.41 223.544 1142.35 223.682 1142.23 223.732C1142.14 223.766 1133.44 227.197 1130.1 235.583C1130.08 235.63 1128.12 241.308 1127.45 253.891L1127.21 256.385C1127.19 256.51 1127.09 256.603 1126.96 256.603Z" fill="#21111D"/>
<path d="M1142.84 223.332C1142.84 223.332 1145.1 227.739 1149.03 227.311C1152.97 226.882 1155.82 222.961 1155.61 221.093C1155.61 221.093 1146.88 221.644 1142.84 223.332Z" fill="#FE9F73"/>
<path d="M1120.59 252.36H1120.67H1128.32L1126.39 275.147H1120.67H1120.59H1114.67L1112.94 252.36H1120.59Z" fill="#49263E"/>
<path d="M1114.98 248.364H1120.59H1120.67H1126.28C1126.93 248.364 1127.46 248.902 1127.46 249.562H1120.67H1120.59H1113.79C1113.79 248.9 1114.33 248.364 1114.98 248.364Z" fill="#CE1D37"/>
<path d="M1113.11 250.178C1113.19 249.819 1113.5 249.562 1113.86 249.562H1120.59H1120.67H1127.4C1127.76 249.562 1128.07 249.819 1128.15 250.178L1128.79 253.224C1128.89 253.706 1128.52 254.159 1128.04 254.159H1120.67H1120.59H1113.23C1112.74 254.159 1112.37 253.706 1112.47 253.224L1113.11 250.178Z" fill="#EF3A4C"/>
<path d="M1127.94 259.356L1127.44 268.62H1120.68H1120.59H1113.82L1113.32 259.356H1120.59H1120.68H1127.94Z" fill="#EF3A4C"/>
<path d="M1127.59 268.78H1113.82C1113.73 268.78 1113.66 268.709 1113.66 268.618C1113.66 268.53 1113.73 268.456 1113.82 268.456H1127.29L1127.78 259.345C1127.79 259.257 1127.86 259.187 1127.95 259.194C1128.04 259.198 1128.11 259.274 1128.1 259.364L1127.59 268.78Z" fill="#21111D"/>
<path d="M1117.01 257.113C1116.95 257.113 1116.9 257.082 1116.86 257.031L1115.55 254.71C1115.51 254.632 1115.53 254.535 1115.61 254.489C1115.69 254.446 1115.79 254.472 1115.83 254.55L1117.15 256.871C1117.19 256.949 1117.16 257.046 1117.09 257.091C1117.06 257.106 1117.03 257.113 1117.01 257.113Z" fill="#21111D"/>
<path d="M1116.79 258.445C1116.73 258.445 1116.68 258.417 1116.65 258.365L1115.46 256.322C1115.41 256.245 1115.44 256.147 1115.51 256.102C1115.59 256.057 1115.69 256.083 1115.73 256.16L1116.92 258.203C1116.97 258.281 1116.94 258.378 1116.87 258.423C1116.84 258.438 1116.81 258.445 1116.79 258.445Z" fill="#21111D"/>
<path d="M1115.86 264.656C1114.87 263.201 1116.29 261.85 1116.29 261.85C1116.18 259.906 1117.19 259.092 1117.19 259.092C1117.19 259.092 1121.65 261.651 1124.35 263.266C1126.03 263.326 1126.76 262.633 1126.76 262.633L1126.79 262.709C1127.09 261.297 1127.46 259.531 1127.5 259.332C1127.56 258.993 1128.2 258.553 1128.85 259.781C1129.49 261.01 1130.93 264.067 1130.93 264.067L1135.28 262.497L1136.5 275.028C1136.5 275.028 1125.97 274.564 1124.37 274.383C1122.77 274.201 1117.53 271.883 1116.14 270.225C1114.76 268.566 1115.34 267.422 1115.34 267.422C1114.4 265.734 1115.86 264.656 1115.86 264.656Z" fill="#FE9F73"/>
<path d="M1119.42 264.324C1119.5 264.339 1119.58 264.302 1119.62 264.227C1119.68 264.134 1119.64 264.015 1119.55 263.965C1118.23 263.251 1116.43 261.72 1116.41 261.705C1116.33 261.636 1116.21 261.644 1116.14 261.726C1116.07 261.809 1116.08 261.929 1116.16 261.999C1116.24 262.063 1118.01 263.57 1119.36 264.304C1119.38 264.313 1119.4 264.319 1119.42 264.324Z" fill="#F07162"/>
<path d="M1118.97 266.731C1119.06 266.749 1119.15 266.699 1119.19 266.61C1119.23 266.511 1119.18 266.399 1119.08 266.36C1117.37 265.704 1116 264.52 1115.98 264.51C1115.9 264.44 1115.78 264.449 1115.71 264.529C1115.64 264.609 1115.65 264.732 1115.73 264.801C1115.79 264.851 1117.17 266.038 1118.94 266.72C1118.95 266.727 1118.96 266.729 1118.97 266.731Z" fill="#F07162"/>
<path d="M1118.03 269.4C1118.12 269.417 1118.21 269.37 1118.25 269.285C1118.29 269.186 1118.24 269.074 1118.14 269.033C1116.69 268.424 1115.48 267.295 1115.47 267.282C1115.39 267.208 1115.27 267.213 1115.2 267.29C1115.12 267.368 1115.13 267.491 1115.21 267.565C1115.26 267.612 1116.48 268.754 1117.99 269.389C1118.01 269.393 1118.02 269.398 1118.03 269.4Z" fill="#F07162"/>
<path d="M1173.35 286.024C1172.85 286.402 1172.37 286.724 1171.92 286.996C1169.22 288.635 1167.08 288.913 1166.99 288.926C1166.85 288.943 1166.73 288.846 1166.71 288.71C1166.69 288.574 1166.79 288.449 1166.92 288.432C1166.95 288.43 1169.07 288.149 1171.68 286.558C1174.09 285.09 1177.42 282.173 1179.62 276.609C1182.38 269.624 1178.85 251.657 1174.99 238.391C1174.95 238.26 1175.03 238.119 1175.16 238.083C1175.29 238.044 1175.43 238.119 1175.47 238.253C1179.35 251.592 1182.89 269.691 1180.09 276.792C1178.24 281.46 1175.61 284.314 1173.35 286.024Z" fill="#21111D"/>
<path d="M1159.8 266.232C1159.76 266.26 1159.71 266.28 1159.66 266.282C1159.52 266.291 1159.41 266.185 1159.4 266.047C1159.39 265.865 1158.4 247.87 1156.96 236.783C1156.95 236.647 1157.04 236.522 1157.18 236.504C1157.32 236.487 1157.44 236.584 1157.46 236.72C1158.89 247.826 1159.89 265.842 1159.9 266.021C1159.9 266.105 1159.86 266.183 1159.8 266.232Z" fill="#21111D"/>
<path d="M1148.49 230.394C1148.3 230.429 1148.11 230.461 1147.91 230.492C1147.8 230.509 1147.69 230.431 1147.68 230.317C1147.66 230.204 1147.73 230.099 1147.85 230.081C1156.37 228.803 1157.46 222.41 1157.47 222.345C1157.48 222.233 1157.58 222.149 1157.69 222.16C1157.8 222.171 1157.89 222.263 1157.88 222.378C1157.87 222.443 1156.79 228.868 1148.49 230.394Z" fill="#21111D"/>
<path d="M1135.58 261.673C1135.59 255.75 1135.52 249.066 1135.19 245.7C1135.17 245.562 1135.27 245.441 1135.41 245.428C1135.55 245.415 1135.67 245.514 1135.68 245.652C1136.02 249.051 1136.09 255.802 1136.08 261.757C1135.91 261.727 1135.74 261.698 1135.58 261.673Z" fill="#21111D"/>
<path d="M1140.51 267.228L1136.5 261.91L1132.38 261.405C1132.38 261.405 1129.92 266.632 1129.3 270.926C1128.67 275.221 1128.3 275.76 1128.3 275.76L1142.14 276.222L1140.51 267.228Z" fill="#FD7583"/>
<path d="M1146.82 283.207C1146.89 283.187 1146.95 283.133 1146.97 283.062C1147.01 282.946 1146.94 282.822 1146.83 282.788C1143.53 281.762 1130.27 276.464 1128.74 275.851C1128.95 270.278 1131.9 262.622 1132.38 261.407L1159.13 266.271L1162.86 267.603C1162.98 267.644 1163.1 267.584 1163.14 267.469C1163.19 267.355 1163.13 267.23 1163.01 267.189L1159.22 265.842L1132.11 260.91L1132.04 261.074C1132.01 261.161 1128.47 269.864 1128.3 275.991L1128.29 276.145L1128.44 276.201C1128.58 276.259 1143.2 282.116 1146.7 283.207C1146.74 283.22 1146.78 283.22 1146.82 283.207Z" fill="#21111D"/>
<path d="M1281.53 295.643C1281.53 295.643 1279.96 273.78 1271.47 278.025C1262.99 282.268 1256.07 310.126 1255.15 310.955C1254.22 311.786 1254.5 337.243 1254.5 337.243L1264.37 332.262C1264.37 332.265 1267 271.41 1281.53 295.643Z" fill="#258D8C"/>
<path d="M1272.02 250.378C1272.02 250.378 1253 267.392 1247.81 296.565C1242.62 325.738 1259.02 334.322 1259.02 334.322C1259.02 334.322 1261.35 272.984 1272.02 250.378Z" fill="#7FC6A6"/>
<path d="M1236.75 338.258C1236.75 338.258 1233.56 276.158 1217.51 249.232C1217.51 249.232 1245.69 266.043 1255.03 310.167C1255.56 312.652 1255.87 315.411 1256.27 318.071C1256.69 320.837 1256.93 323.288 1256.87 325.734C1256.76 330.054 1256.16 333.768 1255.98 336.497C1254.46 360.076 1236.75 338.258 1236.75 338.258Z" fill="#258D8C"/>
<path d="M1237.29 311.888C1236.2 303.033 1232.84 294.594 1227.44 287.495C1223.53 282.367 1219.02 278.47 1215.49 281.251C1207.64 287.43 1206.08 325.805 1206.08 325.805C1206.08 325.805 1214.93 299.238 1218.81 300.991C1222.68 302.744 1226.28 338.811 1226.28 338.811L1240.76 340.009L1237.29 311.888Z" fill="#7FC6A6"/>
<path d="M1257.04 336.091C1257.64 322.532 1255.94 309.519 1251.99 297.413C1248.83 287.728 1244.23 278.597 1238.33 270.276C1228.27 256.106 1217.75 249.105 1217.64 249.036L1217.39 249.426C1217.49 249.495 1227.95 256.458 1237.96 270.563C1247.19 283.576 1257.91 305.503 1256.57 336.067L1257.04 336.091Z" fill="#21111D"/>
<path d="M1259.25 334.331C1259.26 334.178 1259.86 318.794 1261.75 300.848C1263.5 284.297 1266.73 262.126 1272.23 250.478L1271.8 250.277C1266.28 261.983 1263.04 284.213 1261.29 300.801C1259.39 318.762 1258.79 334.158 1258.79 334.311L1259.25 334.331Z" fill="#21111D"/>
<path d="M1264.6 332.273C1264.61 332.174 1265.05 322.171 1266.52 312.037C1268.46 298.711 1271.25 291.213 1274.6 290.353C1276.58 289.846 1278.84 291.666 1281.32 295.762L1281.73 295.518C1279.12 291.223 1276.69 289.334 1274.48 289.898C1270.88 290.82 1268.05 298.247 1266.06 311.97C1264.59 322.128 1264.14 332.15 1264.14 332.25L1264.6 332.273Z" fill="#21111D"/>
<path d="M1240.53 340.04L1240.99 339.981L1237.52 311.857C1236.41 302.884 1232.99 294.41 1227.62 287.352C1224.22 282.883 1221.2 280.452 1218.64 280.128C1217.43 279.975 1216.32 280.29 1215.34 281.065C1212.04 283.667 1209.44 291.994 1207.61 305.812C1206.25 316.07 1205.85 325.697 1205.84 325.792L1206.31 325.811C1206.33 325.429 1207.96 287.475 1215.63 281.432C1216.51 280.737 1217.51 280.454 1218.58 280.59C1221.01 280.899 1223.93 283.267 1227.25 287.633C1232.57 294.624 1235.96 303.021 1237.06 311.911L1240.53 340.04Z" fill="#21111D"/>
<path d="M1225.45 305.345L1225.03 305.56L1228.07 311.459L1228.49 311.244L1225.45 305.345Z" fill="#21111D"/>
<path d="M1225.47 309.333L1225.06 309.559L1228.1 315.084L1228.51 314.858L1225.47 309.333Z" fill="#21111D"/>
<path d="M1259.18 270.217L1256.58 275.926L1257.01 276.12L1259.61 270.411L1259.18 270.217Z" fill="#21111D"/>
<path d="M1258.83 274.649L1256.61 278.645L1257.02 278.872L1259.24 274.876L1258.83 274.649Z" fill="#21111D"/>
<path d="M1273.75 280.12L1269.32 282.377L1269.53 282.794L1273.96 280.537L1273.75 280.12Z" fill="#21111D"/>
<path d="M1271.87 282.724L1269.25 284.317L1269.49 284.718L1272.11 283.124L1271.87 282.724Z" fill="#21111D"/>
<path d="M1269.4 330.684C1269.4 330.684 1268.57 376.085 1256.41 375.02H1246.85H1245.32H1235.75C1223.59 376.085 1222.77 330.684 1222.77 330.684C1234.27 328.946 1257.89 328.946 1269.4 330.684Z" fill="#F99247"/>
<path d="M1227.6 336.507L1227.26 336.829L1240.55 350.864L1240.89 350.542L1227.6 336.507Z" fill="#21111D"/>
<path d="M1231.51 345.55L1231.15 345.858L1238.47 354.27L1238.82 353.962L1231.51 345.55Z" fill="#21111D"/>
<path d="M1070.46 270.779C1070.46 270.779 1071.99 274.618 1070.71 277.522L1100.04 277.768L1102.75 277.522L1105.13 276.043V273.78L1104.47 271.911L1102.3 270.779H1070.46Z" fill="white"/>
<path d="M1101.41 278.143H1069.72C1069.51 278.143 1069.35 277.977 1069.35 277.77C1069.35 277.562 1069.51 277.396 1069.72 277.396H1101.41C1103.32 277.396 1104.88 275.952 1104.88 274.177C1104.88 272.402 1103.32 270.958 1101.41 270.958H1069.72C1069.51 270.958 1069.35 270.789 1069.35 270.584C1069.35 270.379 1069.51 270.211 1069.72 270.211H1101.41C1103.74 270.211 1105.63 271.99 1105.63 274.177C1105.63 276.362 1103.74 278.143 1101.41 278.143Z" fill="#EF3A4C"/>
<path d="M1086.44 274.26H1070.89C1070.84 274.26 1070.81 274.223 1070.81 274.178C1070.81 274.132 1070.84 274.096 1070.89 274.096H1086.44C1086.49 274.096 1086.52 274.132 1086.52 274.178C1086.52 274.223 1086.49 274.26 1086.44 274.26Z" fill="#AAC9F8"/>
<path d="M1103.74 274.26H1088.63C1088.59 274.26 1088.55 274.223 1088.55 274.178C1088.55 274.132 1088.59 274.096 1088.63 274.096H1103.74C1103.79 274.096 1103.82 274.132 1103.82 274.178C1103.82 274.223 1103.79 274.26 1103.74 274.26Z" fill="#AAC9F8"/>
<path d="M1103.34 275.747H1095.58C1095.54 275.747 1095.5 275.711 1095.5 275.665C1095.5 275.62 1095.54 275.583 1095.58 275.583H1103.34C1103.38 275.583 1103.42 275.62 1103.42 275.665C1103.42 275.711 1103.38 275.747 1103.34 275.747Z" fill="#AAC9F8"/>
<path d="M1094.45 275.747H1070.89C1070.84 275.747 1070.81 275.711 1070.81 275.665C1070.81 275.62 1070.84 275.583 1070.89 275.583H1094.45C1094.49 275.583 1094.53 275.62 1094.53 275.665C1094.53 275.711 1094.49 275.747 1094.45 275.747Z" fill="#AAC9F8"/>
<path d="M1101.41 278.226H1069.72C1069.47 278.226 1069.26 278.021 1069.26 277.768C1069.26 277.516 1069.47 277.311 1069.72 277.311C1069.77 277.311 1069.8 277.347 1069.8 277.393C1069.8 277.438 1069.77 277.475 1069.72 277.475C1069.56 277.475 1069.43 277.604 1069.43 277.766C1069.43 277.926 1069.56 278.058 1069.72 278.058H1101.41C1103.69 278.058 1105.55 276.315 1105.55 274.173C1105.55 272.032 1103.69 270.289 1101.41 270.289H1069.72C1069.56 270.289 1069.43 270.419 1069.43 270.581C1069.43 270.74 1069.56 270.872 1069.72 270.872C1069.77 270.872 1069.8 270.909 1069.8 270.954C1069.8 271 1069.77 271.036 1069.72 271.036C1069.47 271.036 1069.26 270.831 1069.26 270.579C1069.26 270.326 1069.47 270.121 1069.72 270.121H1101.41C1103.78 270.121 1105.71 271.937 1105.71 274.171C1105.71 276.41 1103.78 278.226 1101.41 278.226Z" fill="#21111D"/>
<path d="M1079.27 272.688C1079.27 272.688 1078.27 275.175 1078.85 277.006L1079.66 275.754C1079.66 275.754 1080.21 276.419 1080.55 277.006C1080.55 277.006 1081.17 272.917 1082.37 272.688H1079.27Z" fill="#7FC6A6"/>
<path d="M1103.34 272.77H1070.89C1070.85 272.77 1070.81 272.733 1070.81 272.688C1070.81 272.643 1070.85 272.606 1070.89 272.606H1103.34C1103.38 272.606 1103.42 272.643 1103.42 272.688C1103.42 272.733 1103.38 272.77 1103.34 272.77Z" fill="#AAC9F8"/>
<path d="M1120.16 374.379H1123.87L1117.17 280.087H1109.75L1120.16 374.379Z" fill="#FEC786"/>
<path d="M1132.65 278.207H866.273V285.18H1132.65V278.207Z" fill="#4C222E"/>
<path d="M1331.85 374.481H710V376.055H1331.85V374.481Z" fill="black"/>
</svg>
